<svg width="40" height="40" viewBox="0 0 40 40" fill="none" xmlns="http://www.w3.org/2000/svg">
<g style="mix-blend-mode:hard-light" filter="url(#filter0_f)">
<ellipse cx="20" cy="20.0002" rx="12" ry="12" fill="#8F00FF" fill-opacity="0.3"/>
</g>
<g style="mix-blend-mode:hard-light" filter="url(#filter1_f)">
<path d="M18.718 19.4929L18.718 19.4929V19.5C18.718 19.8855 18.3888 20.2308 17.9314 20.2308C17.483 20.2308 17.1449 19.8832 17.1449 19.5C17.1449 19.1145 17.474 18.7692 17.9314 18.7692C18.3956 18.7692 18.725 19.1192 18.718 19.4929ZM24.7797 27.2608H12.3429C11.213 27.2608 10.3792 26.4657 10.3792 25.58V12.06C10.3792 11.1743 11.213 10.3792 12.3429 10.3792H27.6571C28.787 10.3792 29.6208 11.1743 29.6208 12.06V29.2279C28.7146 28.5282 28.2874 28.2006 27.8648 27.8672C27.2862 27.4108 26.7161 26.9436 24.9364 25.4959L23.9352 24.6814L24.3368 25.908L24.7797 27.2608ZM26.7429 21.54L27.0579 21.751L27.122 21.6553V21.54C27.122 19.8679 26.6954 18.3621 26.2733 17.2797C26.0617 16.7373 25.8499 16.2977 25.6903 15.9924C25.6104 15.8397 25.5435 15.7204 25.4959 15.6383C25.4722 15.5973 25.4532 15.5656 25.4399 15.5437L25.4244 15.5182L25.42 15.5111L25.4186 15.5089L25.4182 15.5082L25.418 15.508C25.4179 15.5079 25.4179 15.5078 25.0971 15.71L25.4179 15.5078L25.374 15.4382L25.3052 15.393C24.4349 14.8219 23.5858 14.5442 22.9535 14.4092C22.637 14.3416 22.3735 14.3095 22.1869 14.2943C22.0935 14.2867 22.0192 14.2833 21.9668 14.2818C21.9406 14.2811 21.9199 14.2808 21.9051 14.2808L21.8873 14.2808L21.8817 14.2809L21.8798 14.2809L21.879 14.2809L21.8787 14.2809C21.8786 14.2809 21.8785 14.2809 21.8821 14.4695C21.8821 14.4695 21.8821 14.4695 21.8821 14.4695L21.8785 14.2809L21.7257 14.2838L21.6176 14.3919L21.4576 14.5519L21.2467 14.7628C20.4496 14.6754 19.6479 14.673 18.861 14.7502L18.6403 14.5185L18.526 14.3985L18.4169 14.2839L18.2587 14.2809L18.2561 14.4166C18.2561 14.4166 18.2561 14.4166 18.2561 14.4166C18.2586 14.2809 18.2585 14.2809 18.2584 14.2809L18.2581 14.2809L18.2574 14.2809L18.2554 14.2809L18.2499 14.2808L18.232 14.2808C18.2172 14.2808 18.1965 14.2811 18.1703 14.2818C18.118 14.2833 18.0436 14.2867 17.9503 14.2943C17.7636 14.3095 17.5002 14.3416 17.1837 14.4092C16.5513 14.5442 15.7023 14.8219 14.832 15.393L14.7632 15.4382L14.7193 15.5078L15.04 15.71C14.7193 15.5078 14.7192 15.5079 14.7191 15.508L14.719 15.5082L14.7185 15.5089L14.7172 15.5111L14.7128 15.5182L14.6972 15.5437C14.6839 15.5656 14.665 15.5973 14.6412 15.6383C14.5937 15.7204 14.5267 15.8397 14.4469 15.9924C14.2872 16.2977 14.0754 16.7373 13.8639 17.2797C13.4418 18.3621 13.0151 19.8679 13.0151 21.54V21.6541L13.0781 21.7493L13.3943 21.54C13.0781 21.7493 13.0783 21.7495 13.0784 21.7497L13.0787 21.7501L13.0793 21.7511L13.0808 21.7533L13.085 21.7594L13.0978 21.7776C13.1084 21.7924 13.1231 21.8122 13.142 21.8363C13.1799 21.8847 13.2348 21.9505 13.3081 22.0281C13.4547 22.1832 13.6751 22.3857 13.9794 22.589C14.5909 22.9975 15.531 23.4019 16.8695 23.439L17.0397 23.4437L17.1563 23.3196L16.88 23.06L17.1563 23.3196L17.1563 23.3196L17.1564 23.3195L17.1567 23.3193L17.1576 23.3183L17.1613 23.3144L17.1754 23.2993L17.2284 23.2427C17.2736 23.1943 17.3375 23.1259 17.4121 23.0455C17.5612 22.885 17.754 22.676 17.9272 22.484L18.0458 22.3526C19.3145 22.6207 20.7158 22.6556 22.0905 22.3717L22.2099 22.504C22.3838 22.6968 22.5744 22.9014 22.7209 23.0572C22.7943 23.1353 22.8569 23.2014 22.9012 23.248L22.953 23.3024L22.9668 23.317L22.9705 23.3208L22.9714 23.3218L22.9717 23.322L22.9717 23.3221L22.9717 23.3221L23.2457 23.06L22.9718 23.3221L23.0881 23.4437L23.2562 23.439C24.5946 23.4019 25.5373 22.9976 26.1513 22.5895C26.4569 22.3864 26.6786 22.1841 26.8261 22.0292C26.8999 21.9517 26.9553 21.886 26.9935 21.8378C27.0126 21.8137 27.0274 21.7939 27.038 21.7792L27.051 21.7611L27.0552 21.755L27.0567 21.7528L27.0573 21.7518L27.0576 21.7514C27.0577 21.7512 27.0579 21.751 26.7429 21.54ZM22.8894 19.5C22.8894 19.8855 22.5602 20.2308 22.1029 20.2308C21.6544 20.2308 21.3163 19.8832 21.3163 19.5C21.3163 19.1145 21.6455 18.7692 22.1029 18.7692C22.5602 18.7692 22.8894 19.1145 22.8894 19.5Z" stroke="#CC00FF" stroke-width="0.758333"/>
</g>
<g style="mix-blend-mode:hard-light" filter="url(#filter2_f)">
<path d="M18.6014 19.4907L18.6013 19.4907V19.5C18.6013 19.8165 18.3291 20.1142 17.9314 20.1142C17.5419 20.1142 17.2615 19.8134 17.2615 19.5C17.2615 19.1835 17.5337 18.8858 17.9314 18.8858C18.338 18.8858 18.607 19.1897 18.6014 19.4907ZM24.6188 27.1442H12.3429C11.2627 27.1442 10.4958 26.3875 10.4958 25.58V12.06C10.4958 11.2525 11.2627 10.4958 12.3429 10.4958H27.6571C28.7373 10.4958 29.5042 11.2525 29.5042 12.06V28.9905C28.725 28.3891 28.3291 28.0849 27.9372 27.7757C27.359 27.3196 26.7893 26.8528 25.01 25.4054L23.7008 24.3403L24.2259 25.9443L24.6188 27.1442ZM26.7429 21.54L27.1548 21.816L27.2387 21.6907V21.54C27.2387 19.8488 26.8074 18.3282 26.3819 17.2373C26.1686 16.6903 25.955 16.2467 25.7937 15.9383C25.713 15.784 25.6452 15.6632 25.5969 15.5798C25.5727 15.5381 25.5534 15.5058 25.5397 15.4832L25.5236 15.4568L25.5189 15.4493L25.5174 15.4469L25.5169 15.4461L25.5167 15.4458C25.5166 15.4457 25.5166 15.4455 25.0971 15.71L25.5166 15.4455L25.4592 15.3545L25.3692 15.2955C24.4843 14.7147 23.6211 14.4324 22.9778 14.2951C22.6558 14.2263 22.3874 14.1936 22.1964 14.178C22.1008 14.1702 22.0244 14.1667 21.9701 14.1652C21.9429 14.1644 21.9213 14.1642 21.9055 14.1641L21.8863 14.1641L21.8801 14.1642L21.8779 14.1642L21.877 14.1642L21.8766 14.1643C21.8764 14.1643 21.8763 14.1643 21.8798 14.348C21.8798 14.348 21.8797 14.348 21.8797 14.348L21.8762 14.1643L21.6764 14.1681L21.5351 14.3094L21.3751 14.4694L21.2037 14.6408C20.4359 14.5604 19.6646 14.558 18.9063 14.6287L18.7248 14.438L18.6105 14.318L18.4678 14.1682L18.2609 14.1643L18.2573 14.3513L18.2573 14.3511C18.2608 14.1643 18.2607 14.1643 18.2606 14.1643L18.2602 14.1642L18.2593 14.1642L18.257 14.1642L18.2508 14.1641L18.2316 14.1641C18.2158 14.1642 18.1942 14.1644 18.1671 14.1652C18.1128 14.1667 18.0364 14.1702 17.9408 14.178C17.7498 14.1936 17.4813 14.2263 17.1593 14.2951C16.5161 14.4324 15.6529 14.7147 14.768 15.2955L14.678 15.3545L14.6206 15.4455L15.04 15.71C14.6206 15.4455 14.6205 15.4457 14.6204 15.4458L14.6202 15.4461L14.6197 15.4469L14.6182 15.4493L14.6135 15.4568L14.5974 15.4832C14.5838 15.5058 14.5644 15.5381 14.5403 15.5798C14.492 15.6632 14.4242 15.784 14.3435 15.9383C14.1822 16.2467 13.9685 16.6903 13.7552 17.2373C13.3298 18.3282 12.8985 19.8488 12.8985 21.54V21.6893L12.9809 21.8137L13.3943 21.54C12.9809 21.8137 12.981 21.814 12.9812 21.8142L12.9815 21.8147L12.9823 21.8159L12.9841 21.8186L12.9889 21.8257L13.0031 21.8457C13.0146 21.8617 13.0303 21.8828 13.0502 21.9083C13.0901 21.9592 13.1474 22.0278 13.2233 22.1082C13.3751 22.2689 13.6021 22.4773 13.9146 22.686C14.5432 23.106 15.5046 23.5179 16.8663 23.5556L17.0889 23.5618L17.2413 23.3995L16.88 23.06L17.2413 23.3995L17.2414 23.3995L17.2414 23.3994L17.2417 23.3992L17.2426 23.3981L17.2464 23.3942L17.2606 23.3791L17.3136 23.3224C17.3589 23.2739 17.4229 23.2054 17.4976 23.1249C17.6469 22.9642 17.8401 22.7547 18.0139 22.5622L18.0876 22.4804C19.3337 22.735 20.7023 22.7674 22.0485 22.4993L22.1233 22.5822C22.298 22.7758 22.4891 22.981 22.6359 23.1371C22.7094 23.2153 22.7722 23.2816 22.8166 23.3283L22.8685 23.383L22.8825 23.3976L22.8861 23.4014L22.8871 23.4024L22.8873 23.4027L22.8874 23.4027L22.8874 23.4028L23.2457 23.06L22.8875 23.4028L23.0395 23.5617L23.2595 23.5556C24.6211 23.5179 25.5849 23.1061 26.2159 22.6867C26.5295 22.4782 26.7578 22.27 26.9106 22.1097C26.987 22.0294 27.0447 21.961 27.0849 21.9102C27.1051 21.8848 27.1208 21.8638 27.1324 21.8478L27.1467 21.8278L27.1515 21.8208L27.1533 21.8181L27.1541 21.817L27.1545 21.8165C27.1546 21.8162 27.1548 21.816 26.7429 21.54ZM22.7727 19.5C22.7727 19.8165 22.5005 20.1142 22.1029 20.1142C21.7134 20.1142 21.433 19.8134 21.433 19.5C21.433 19.1835 21.7052 18.8858 22.1029 18.8858C22.5005 18.8858 22.7727 19.1835 22.7727 19.5Z" stroke="#CC00FF" stroke-width="0.991667"/>
</g>
<g style="mix-blend-mode:hard-light" filter="url(#filter3_ddi)">
<path d="M18.718 19.4929L18.718 19.4929V19.5C18.718 19.8855 18.3888 20.2308 17.9314 20.2308C17.483 20.2308 17.1449 19.8832 17.1449 19.5C17.1449 19.1145 17.474 18.7692 17.9314 18.7692C18.3956 18.7692 18.725 19.1192 18.718 19.4929ZM24.7797 27.2608H12.3429C11.213 27.2608 10.3792 26.4657 10.3792 25.58V12.06C10.3792 11.1743 11.213 10.3792 12.3429 10.3792H27.6571C28.787 10.3792 29.6208 11.1743 29.6208 12.06V29.2279C28.7146 28.5282 28.2874 28.2006 27.8648 27.8672C27.2862 27.4108 26.7161 26.9436 24.9364 25.4959L23.9352 24.6814L24.3368 25.908L24.7797 27.2608ZM26.7429 21.54L27.0579 21.751L27.122 21.6553V21.54C27.122 19.8679 26.6954 18.3621 26.2733 17.2797C26.0617 16.7373 25.8499 16.2977 25.6903 15.9924C25.6104 15.8397 25.5435 15.7204 25.4959 15.6383C25.4722 15.5973 25.4532 15.5656 25.4399 15.5437L25.4244 15.5182L25.42 15.5111L25.4186 15.5089L25.4182 15.5082L25.418 15.508C25.4179 15.5079 25.4179 15.5078 25.0971 15.71L25.4179 15.5078L25.374 15.4382L25.3052 15.393C24.4349 14.8219 23.5858 14.5442 22.9535 14.4092C22.637 14.3416 22.3735 14.3095 22.1869 14.2943C22.0935 14.2867 22.0192 14.2833 21.9668 14.2818C21.9406 14.2811 21.9199 14.2808 21.9051 14.2808L21.8873 14.2808L21.8817 14.2809L21.8798 14.2809L21.879 14.2809L21.8787 14.2809C21.8786 14.2809 21.8785 14.2809 21.8821 14.4695C21.8821 14.4695 21.8821 14.4695 21.8821 14.4695L21.8785 14.2809L21.7257 14.2838L21.6176 14.3919L21.4576 14.5519L21.2467 14.7628C20.4496 14.6754 19.6479 14.673 18.861 14.7502L18.6403 14.5185L18.526 14.3985L18.4169 14.2839L18.2587 14.2809L18.2561 14.4166C18.2561 14.4166 18.2561 14.4166 18.2561 14.4166C18.2586 14.2809 18.2585 14.2809 18.2584 14.2809L18.2581 14.2809L18.2574 14.2809L18.2554 14.2809L18.2499 14.2808L18.232 14.2808C18.2172 14.2808 18.1965 14.2811 18.1703 14.2818C18.118 14.2833 18.0436 14.2867 17.9503 14.2943C17.7636 14.3095 17.5002 14.3416 17.1837 14.4092C16.5513 14.5442 15.7023 14.8219 14.832 15.393L14.7632 15.4382L14.7193 15.5078L15.04 15.71C14.7193 15.5078 14.7192 15.5079 14.7191 15.508L14.719 15.5082L14.7185 15.5089L14.7172 15.5111L14.7128 15.5182L14.6972 15.5437C14.6839 15.5656 14.665 15.5973 14.6412 15.6383C14.5937 15.7204 14.5267 15.8397 14.4469 15.9924C14.2872 16.2977 14.0754 16.7373 13.8639 17.2797C13.4418 18.3621 13.0151 19.8679 13.0151 21.54V21.6541L13.0781 21.7493L13.3943 21.54C13.0781 21.7493 13.0783 21.7495 13.0784 21.7497L13.0787 21.7501L13.0793 21.7511L13.0808 21.7533L13.085 21.7594L13.0978 21.7776C13.1084 21.7924 13.1231 21.8122 13.142 21.8363C13.1799 21.8847 13.2348 21.9505 13.3081 22.0281C13.4547 22.1832 13.6751 22.3857 13.9794 22.589C14.5909 22.9975 15.531 23.4019 16.8695 23.439L17.0397 23.4437L17.1563 23.3196L16.88 23.06L17.1563 23.3196L17.1563 23.3196L17.1564 23.3195L17.1567 23.3193L17.1576 23.3183L17.1613 23.3144L17.1754 23.2993L17.2284 23.2427C17.2736 23.1943 17.3375 23.1259 17.4121 23.0455C17.5612 22.885 17.754 22.676 17.9272 22.484L18.0458 22.3526C19.3145 22.6207 20.7158 22.6556 22.0905 22.3717L22.2099 22.504C22.3838 22.6968 22.5744 22.9014 22.7209 23.0572C22.7943 23.1353 22.8569 23.2014 22.9012 23.248L22.953 23.3024L22.9668 23.317L22.9705 23.3208L22.9714 23.3218L22.9717 23.322L22.9717 23.3221L22.9717 23.3221L23.2457 23.06L22.9718 23.3221L23.0881 23.4437L23.2562 23.439C24.5946 23.4019 25.5373 22.9976 26.1513 22.5895C26.4569 22.3864 26.6786 22.1841 26.8261 22.0292C26.8999 21.9517 26.9553 21.886 26.9935 21.8378C27.0126 21.8137 27.0274 21.7939 27.038 21.7792L27.051 21.7611L27.0552 21.755L27.0567 21.7528L27.0573 21.7518L27.0576 21.7514C27.0577 21.7512 27.0579 21.751 26.7429 21.54ZM22.8894 19.5C22.8894 19.8855 22.5602 20.2308 22.1029 20.2308C21.6544 20.2308 21.3163 19.8832 21.3163 19.5C21.3163 19.1145 21.6455 18.7692 22.1029 18.7692C22.5602 18.7692 22.8894 19.1145 22.8894 19.5Z" stroke="#6100FF" stroke-opacity="0.2" stroke-width="0.758333"/>
</g>
<g filter="url(#filter4_f)">
<path d="M18.8639 19.4956L18.8638 19.4956V19.5C18.8638 19.9719 18.4634 20.3767 17.9314 20.3767C17.4093 20.3767 16.999 19.9704 16.999 19.5C16.999 19.0281 17.3994 18.6233 17.9314 18.6233C18.4676 18.6233 18.8726 19.031 18.8639 19.4956ZM24.9809 27.4067H12.3429C11.1508 27.4067 10.2333 26.5635 10.2333 25.58V12.06C10.2333 11.0765 11.1508 10.2333 12.3429 10.2333H27.6571C28.8492 10.2333 29.7667 11.0765 29.7667 12.06V29.5248C28.6956 28.6974 28.2323 28.3429 27.7744 27.9816C27.1953 27.5248 26.6247 27.0572 24.8444 25.609L24.2283 25.1078L24.4754 25.8626L24.9809 27.4067ZM26.7429 21.54L26.9367 21.6699L26.9762 21.6109V21.54C26.9762 19.8918 26.5554 18.4046 26.1374 17.3327C25.9281 16.796 25.7186 16.3613 25.561 16.06C25.4822 15.9093 25.4163 15.7918 25.3697 15.7114C25.3465 15.6713 25.328 15.6404 25.3152 15.6192L25.3003 15.5949L25.2963 15.5883L25.2951 15.5865L25.2947 15.5859L25.2946 15.5857C25.2946 15.5856 25.2945 15.5855 25.0971 15.71L25.2945 15.5855L25.2675 15.5427L25.2252 15.5149C24.3731 14.9558 23.5418 14.6839 22.923 14.5518C22.6134 14.4857 22.3562 14.4544 22.175 14.4396C22.0844 14.4322 22.0127 14.429 21.9627 14.4276C21.9378 14.4269 21.9183 14.4266 21.9046 14.4266L21.8884 14.4266L21.8837 14.4267L21.8822 14.4267L21.8816 14.4267L21.8814 14.4267C21.8813 14.4267 21.8813 14.4267 21.885 14.6215L21.8812 14.4267L21.7872 14.4285L21.7207 14.495L21.5607 14.655L21.3001 14.9156C20.4665 14.8189 19.6271 14.8167 18.8046 14.9025L18.5347 14.6191L18.4204 14.4991L18.3532 14.4286L18.2559 14.4267L18.2532 14.5679C18.2559 14.4267 18.2558 14.4267 18.2557 14.4267L18.2555 14.4267L18.255 14.4267L18.2535 14.4267L18.2487 14.4266L18.2326 14.4266C18.2189 14.4266 18.1994 14.4269 18.1744 14.4276C18.1245 14.429 18.0528 14.4322 17.9621 14.4396C17.7809 14.4544 17.5237 14.4857 17.2141 14.5518C16.5953 14.6839 15.764 14.9558 14.912 15.5149L14.8696 15.5427L14.8426 15.5855L15.04 15.71C14.8426 15.5855 14.8426 15.5856 14.8425 15.5857L14.8424 15.5859L14.8421 15.5865L14.8409 15.5883L14.8368 15.5949L14.8219 15.6192C14.8091 15.6404 14.7907 15.6713 14.7674 15.7114C14.7208 15.7918 14.6549 15.9093 14.5761 16.06C14.4185 16.3613 14.2091 16.796 13.9998 17.3327C13.5818 18.4046 13.161 19.8918 13.161 21.54V21.6102L13.1997 21.6688L13.3943 21.54C13.1997 21.6688 13.1998 21.6689 13.1999 21.6691L13.2001 21.6693L13.2005 21.67L13.2017 21.6717L13.205 21.6766L13.2162 21.6925C13.2257 21.7057 13.2392 21.7239 13.2568 21.7464C13.2921 21.7914 13.3441 21.8538 13.4141 21.9279C13.5541 22.0761 13.7663 22.2713 14.0604 22.4678C14.6504 22.8619 15.5642 23.257 16.8735 23.2932L16.9783 23.2961L17.05 23.2198L16.88 23.06L17.05 23.2198L17.0501 23.2198L17.0501 23.2197L17.0504 23.2194L17.0513 23.2184L17.055 23.2145L17.0691 23.1995L17.1219 23.1431C17.167 23.0948 17.2308 23.0265 17.3053 22.9463C17.4542 22.7859 17.6464 22.5775 17.819 22.3863L17.994 22.1923C19.2902 22.4779 20.7326 22.5163 22.1426 22.2117L22.3182 22.4063C22.4911 22.598 22.6809 22.8018 22.8271 22.9573C22.9003 23.0352 22.9627 23.1011 23.0069 23.1476L23.0585 23.2018L23.0723 23.2163L23.0759 23.22L23.0768 23.221L23.077 23.2212L23.0771 23.2213L23.0771 23.2213L23.2457 23.06L23.0771 23.2213L23.1487 23.2961L23.2522 23.2932C24.5615 23.257 25.4779 22.862 26.0706 22.4681C26.366 22.2717 26.5795 22.0766 26.7206 21.9286C26.7911 21.8546 26.8435 21.7922 26.8791 21.7473C26.8969 21.7248 26.9105 21.7066 26.9201 21.6935L26.9314 21.6776L26.9348 21.6727L26.9359 21.671L26.9364 21.6704L26.9365 21.6701C26.9366 21.67 26.9367 21.6699 26.7429 21.54ZM23.0352 19.5C23.0352 19.9719 22.6349 20.3767 22.1029 20.3767C21.5807 20.3767 21.1705 19.9704 21.1705 19.5C21.1705 19.0281 21.5708 18.6233 22.1029 18.6233C22.6349 18.6233 23.0352 19.0281 23.0352 19.5Z" stroke="#C882FF" stroke-width="0.466667"/>
</g>
<g filter="url(#filter5_f)">
<path d="M18.9805 19.4978H18.9805V19.5C18.9805 20.0409 18.5232 20.4933 17.9314 20.4933C17.3504 20.4933 16.8824 20.0402 16.8824 19.5C16.8824 18.9591 17.3397 18.5067 17.9314 18.5067C18.5252 18.5067 18.9906 18.9605 18.9805 19.4978ZM25.1419 27.5233H12.3429C11.1011 27.5233 10.1167 26.6418 10.1167 25.58V12.06C10.1167 10.9982 11.1011 10.1167 12.3429 10.1167H27.6571C28.8989 10.1167 29.8833 10.9982 29.8833 12.06V29.7623C28.6764 28.8296 28.1862 28.4551 27.702 28.0731C27.1225 27.616 26.5515 27.1481 24.7708 25.6995L24.4627 25.4489L24.5863 25.8263L25.1419 27.5233ZM26.8398 21.6049L26.8595 21.5755V21.54C26.8595 19.9109 26.4434 18.4385 26.0287 17.3751C25.8212 16.843 25.6136 16.4122 25.4577 16.1141C25.3797 15.965 25.3146 15.8489 25.2688 15.7699C25.2459 15.7304 25.2278 15.7002 25.2154 15.6797L25.2011 15.6562L25.1973 15.6501L25.1963 15.6485L25.196 15.648L25.1959 15.6479L25.0971 15.71L25.1958 15.6478L25.1823 15.6264L25.1612 15.6125C24.3237 15.0629 23.5066 14.7957 22.8986 14.6659C22.5946 14.601 22.3424 14.5703 22.1656 14.5559C22.0771 14.5487 22.0074 14.5455 21.9595 14.5442C21.9355 14.5435 21.9169 14.5433 21.9041 14.5433L21.8893 14.5433L21.8853 14.5433L21.8841 14.5433L21.8837 14.5434L21.8836 14.5434L21.8857 14.66L21.8835 14.5434L21.8365 14.5443L21.8032 14.5775L21.6432 14.7375L21.5003 14.8804L21.6956 14.9327C22.2148 15.0717 22.6586 15.2271 23.0297 15.3798C20.9859 14.7911 18.8014 14.8342 16.8437 15.4044C17.2624 15.2291 17.7778 15.049 18.3943 14.8931L18.5879 14.8442L18.4502 14.6995L18.3359 14.5795L18.3023 14.5443L18.2537 14.5434L18.2514 14.66L18.2536 14.5434L18.2534 14.5434L18.2531 14.5433L18.2519 14.5433L18.2478 14.5433L18.233 14.5433C18.2202 14.5433 18.2017 14.5435 18.1777 14.5442C18.1297 14.5455 18.06 14.5487 17.9716 14.5559C17.7947 14.5703 17.5426 14.601 17.2385 14.6659C16.6305 14.7957 15.8134 15.0629 14.976 15.6125L14.9548 15.6264L14.9413 15.6478L15.04 15.71L14.9413 15.6479L14.9412 15.648L14.9409 15.6485L14.9398 15.6501L14.936 15.6562L14.9217 15.6797C14.9093 15.7002 14.8912 15.7304 14.8683 15.7699C14.8226 15.8489 14.7575 15.965 14.6795 16.1141C14.5235 16.4122 14.316 16.843 14.1084 17.3751C13.6937 18.4385 13.2776 19.9109 13.2776 21.54V21.5751L13.297 21.6044L13.3943 21.54C13.297 21.6044 13.297 21.6045 13.2971 21.6045L13.2972 21.6047L13.2975 21.6051L13.2983 21.6064L13.3011 21.6104L13.311 21.6244C13.3195 21.6363 13.332 21.6532 13.3486 21.6744C13.3819 21.7168 13.4316 21.7765 13.4989 21.8478C13.6337 21.9904 13.8392 22.1797 14.1252 22.3708C14.6981 22.7535 15.5907 23.141 16.8768 23.1766L16.9291 23.1781L16.965 23.1399L16.88 23.06L16.965 23.1399L16.965 23.1399L16.9651 23.1398L16.9653 23.1396L16.9663 23.1386L16.9699 23.1347L16.9839 23.1197L17.0366 23.0634C17.0817 23.0152 17.1454 22.947 17.2198 22.8669C17.3685 22.7067 17.5604 22.4988 17.7323 22.3082L17.8608 22.1657L17.6753 22.1171C17.1017 21.967 16.6742 21.7502 16.3692 21.5466C18.3006 22.3915 20.9174 22.6292 23.2839 21.7603C23.4588 21.7034 23.6421 21.6352 23.832 21.5543C23.515 21.7641 23.0672 21.9875 22.4634 22.1367L22.2743 22.1835L22.4048 22.3282C22.577 22.519 22.7662 22.7222 22.9121 22.8774C22.9852 22.9551 23.0474 23.0209 23.0915 23.0672L23.1429 23.1213L23.1566 23.1357L23.1602 23.1394L23.1611 23.1403L23.1613 23.1406L23.1614 23.1406L23.1614 23.1406L23.2457 23.06L23.1614 23.1407L23.1972 23.1781L23.2489 23.1766C24.535 23.141 25.4304 22.7535 26.006 22.3709C26.2934 22.1799 26.5003 21.9907 26.6361 21.8481C26.704 21.7769 26.7541 21.7172 26.7877 21.6749C26.8044 21.6537 26.8171 21.6368 26.8257 21.6249L26.8357 21.6109L26.8385 21.6069L26.8393 21.6056L26.8396 21.6052L26.8397 21.6051C26.8397 21.605 26.8398 21.6049 26.7429 21.54L26.8398 21.6049ZM23.1519 19.5C23.1519 20.0409 22.6946 20.4933 22.1029 20.4933C21.5218 20.4933 21.0538 20.0402 21.0538 19.5C21.0538 18.9591 21.5111 18.5067 22.1029 18.5067C22.6946 18.5067 23.1519 18.9591 23.1519 19.5Z" stroke="white" stroke-width="0.233333"/>
</g>
<defs>
<filter id="filter0_f" x="2.75" y="2.75024" width="34.5" height="34.5" filterUnits="userSpaceOnUse" color-interpolation-filters="sRGB">
<feFlood flood-opacity="0" result="BackgroundImageFix"/>
<feBlend mode="normal" in="SourceGraphic" in2="BackgroundImageFix" result="shape"/>
<feGaussianBlur stdDeviation="2.625" result="effect1_foregroundBlur"/>
</filter>
<filter id="filter1_f" x="4.75" y="4.75" width="30.5" height="30.5" filterUnits="userSpaceOnUse" color-interpolation-filters="sRGB">
<feFlood flood-opacity="0" result="BackgroundImageFix"/>
<feBlend mode="normal" in="SourceGraphic" in2="BackgroundImageFix" result="shape"/>
<feGaussianBlur stdDeviation="2.625" result="effect1_foregroundBlur"/>
</filter>
<filter id="filter2_f" x="8.25" y="8.25" width="23.5" height="23.5" filterUnits="userSpaceOnUse" color-interpolation-filters="sRGB">
<feFlood flood-opacity="0" result="BackgroundImageFix"/>
<feBlend mode="normal" in="SourceGraphic" in2="BackgroundImageFix" result="shape"/>
<feGaussianBlur stdDeviation="0.875" result="effect1_foregroundBlur"/>
</filter>
<filter id="filter3_ddi" x="7.725" y="9.475" width="24.55" height="24.55" filterUnits="userSpaceOnUse" color-interpolation-filters="sRGB">
<feFlood flood-opacity="0" result="BackgroundImageFix"/>
<feColorMatrix in="SourceAlpha" type="matrix" values="0 0 0 0 0 0 0 0 0 0 0 0 0 0 0 0 0 0 127 0"/>
<feOffset dy="0.758333"/>
<feGaussianBlur stdDeviation="0.291667"/>
<feColorMatrix type="matrix" values="0 0 0 0 0.055 0 0 0 0 0 0 0 0 0 0.082 0 0 0 0.7 0"/>
<feBlend mode="multiply" in2="BackgroundImageFix" result="effect1_dropShadow"/>
<feColorMatrix in="SourceAlpha" type="matrix" values="0 0 0 0 0 0 0 0 0 0 0 0 0 0 0 0 0 0 127 0"/>
<feOffset dy="1.75"/>
<feGaussianBlur stdDeviation="1.1375"/>
<feColorMatrix type="matrix" values="0 0 0 0 0.514 0 0 0 0 0 0 0 0 0 0.756 0 0 0 1 0"/>
<feBlend mode="color-dodge" in2="effect1_dropShadow" result="effect2_dropShadow"/>
<feBlend mode="normal" in="SourceGraphic" in2="effect2_dropShadow" result="shape"/>
<feColorMatrix in="SourceAlpha" type="matrix" values="0 0 0 0 0 0 0 0 0 0 0 0 0 0 0 0 0 0 127 0" result="hardAlpha"/>
<feOffset dx="-0.0758333" dy="0.151667"/>
<feGaussianBlur stdDeviation="0.0379167"/>
<feComposite in2="hardAlpha" operator="arithmetic" k2="-1" k3="1"/>
<feColorMatrix type="matrix" values="0 0 0 0 1 0 0 0 0 1 0 0 0 0 1 0 0 0 0.5 0"/>
<feBlend mode="normal" in2="shape" result="effect3_innerShadow"/>
</filter>
<filter id="filter4_f" x="9.88333" y="9.88333" width="20.2333" height="20.2333" filterUnits="userSpaceOnUse" color-interpolation-filters="sRGB">
<feFlood flood-opacity="0" result="BackgroundImageFix"/>
<feBlend mode="normal" in="SourceGraphic" in2="BackgroundImageFix" result="shape"/>
<feGaussianBlur stdDeviation="0.0583333" result="effect1_foregroundBlur"/>
</filter>
<filter id="filter5_f" x="9.92222" y="9.92222" width="20.1556" height="20.1556" filterUnits="userSpaceOnUse" color-interpolation-filters="sRGB">
<feFlood flood-opacity="0" result="BackgroundImageFix"/>
<feBlend mode="normal" in="SourceGraphic" in2="BackgroundImageFix" result="shape"/>
<feGaussianBlur stdDeviation="0.0388889" result="effect1_foregroundBlur"/>
</filter>
</defs>
</svg>
