<svg width="26" height="40" viewBox="0 0 26 40" fill="none" xmlns="http://www.w3.org/2000/svg">
<g style="mix-blend-mode:hard-light" filter="url(#filter0_f)">
<ellipse cx="13.0004" cy="20" rx="6.6" ry="12" fill="#128DFF" fill-opacity="0.2"/>
</g>
<g style="mix-blend-mode:hard-light" filter="url(#filter1_f)">
<path d="M18.5 10H15.5C14.1739 10 12.9021 10.5268 11.9645 11.4645C11.0268 12.4021 10.5 13.6739 10.5 15V18H7.5V22H10.5V30H14.5V22H17.5L18.5 18H14.5V15C14.5 14.7348 14.6054 14.4804 14.7929 14.2929C14.9804 14.1054 15.2348 14 15.5 14H18.5V10Z" stroke="#0094FF" stroke-width="1.3" stroke-linecap="round" stroke-linejoin="round"/>
</g>
<g style="mix-blend-mode:hard-light" filter="url(#filter2_f)">
<path d="M18.5 10H15.5C14.1739 10 12.9021 10.5268 11.9645 11.4645C11.0268 12.4021 10.5 13.6739 10.5 15V18H7.5V22H10.5V30H14.5V22H17.5L18.5 18H14.5V15C14.5 14.7348 14.6054 14.4804 14.7929 14.2929C14.9804 14.1054 15.2348 14 15.5 14H18.5V10Z" stroke="#0094FF" stroke-width="1.7" stroke-linecap="round" stroke-linejoin="round"/>
</g>
<g style="mix-blend-mode:hard-light" filter="url(#filter3_ddi)">
<path d="M18.5 10H15.5C14.1739 10 12.9021 10.5268 11.9645 11.4645C11.0268 12.4021 10.5 13.6739 10.5 15V18H7.5V22H10.5V30H14.5V22H17.5L18.5 18H14.5V15C14.5 14.7348 14.6054 14.4804 14.7929 14.2929C14.9804 14.1054 15.2348 14 15.5 14H18.5V10Z" stroke="#00B3FF" stroke-opacity="0.2" stroke-width="1.3" stroke-linecap="round" stroke-linejoin="round"/>
</g>
<g filter="url(#filter4_f)">
<path d="M18.5 10H15.5C14.1739 10 12.9021 10.5268 11.9645 11.4645C11.0268 12.4021 10.5 13.6739 10.5 15V18H7.5V22H10.5V30H14.5V22H17.5L18.5 18H14.5V15C14.5 14.7348 14.6054 14.4804 14.7929 14.2929C14.9804 14.1054 15.2348 14 15.5 14H18.5V10Z" stroke="#82D9FF" stroke-width="0.8" stroke-linecap="round" stroke-linejoin="round"/>
</g>
<g filter="url(#filter5_f)">
<path d="M18.5 10H15.5C14.1739 10 12.9021 10.5268 11.9645 11.4645C11.0268 12.4021 10.5 13.6739 10.5 15V18H7.5V22H10.5V30H14.5V22H17.5L18.5 18H14.5V15C14.5 14.7348 14.6054 14.4804 14.7929 14.2929C14.9804 14.1054 15.2348 14 15.5 14H18.5V10Z" stroke="white" stroke-width="0.4" stroke-linecap="round" stroke-linejoin="round"/>
</g>
<defs>
<filter id="filter0_f" x="0.400391" y="2" width="25.2" height="36" filterUnits="userSpaceOnUse" color-interpolation-filters="sRGB">
<feFlood flood-opacity="0" result="BackgroundImageFix"/>
<feBlend mode="normal" in="SourceGraphic" in2="BackgroundImageFix" result="shape"/>
<feGaussianBlur stdDeviation="3" result="effect1_foregroundBlur"/>
</filter>
<filter id="filter1_f" x="0.849609" y="3.3501" width="24.3" height="33.3" filterUnits="userSpaceOnUse" color-interpolation-filters="sRGB">
<feFlood flood-opacity="0" result="BackgroundImageFix"/>
<feBlend mode="normal" in="SourceGraphic" in2="BackgroundImageFix" result="shape"/>
<feGaussianBlur stdDeviation="3" result="effect1_foregroundBlur"/>
</filter>
<filter id="filter2_f" x="4.65039" y="7.1499" width="16.7" height="25.7" filterUnits="userSpaceOnUse" color-interpolation-filters="sRGB">
<feFlood flood-opacity="0" result="BackgroundImageFix"/>
<feBlend mode="normal" in="SourceGraphic" in2="BackgroundImageFix" result="shape"/>
<feGaussianBlur stdDeviation="1" result="effect1_foregroundBlur"/>
</filter>
<filter id="filter3_ddi" x="4.24961" y="8.7501" width="17.5" height="26.5" filterUnits="userSpaceOnUse" color-interpolation-filters="sRGB">
<feFlood flood-opacity="0" result="BackgroundImageFix"/>
<feColorMatrix in="SourceAlpha" type="matrix" values="0 0 0 0 0 0 0 0 0 0 0 0 0 0 0 0 0 0 127 0"/>
<feOffset dy="1.3"/>
<feGaussianBlur stdDeviation="0.5"/>
<feColorMatrix type="matrix" values="0 0 0 0 0 0 0 0 0 0.051 0 0 0 0 0.082 0 0 0 0.7 0"/>
<feBlend mode="multiply" in2="BackgroundImageFix" result="effect1_dropShadow"/>
<feColorMatrix in="SourceAlpha" type="matrix" values="0 0 0 0 0 0 0 0 0 0 0 0 0 0 0 0 0 0 127 0"/>
<feOffset dy="2"/>
<feGaussianBlur stdDeviation="1.3"/>
<feColorMatrix type="matrix" values="0 0 0 0 0 0 0 0 0 0.4 0 0 0 0 1 0 0 0 1 0"/>
<feBlend mode="color-dodge" in2="effect1_dropShadow" result="effect2_dropShadow"/>
<feBlend mode="normal" in="SourceGraphic" in2="effect2_dropShadow" result="shape"/>
<feColorMatrix in="SourceAlpha" type="matrix" values="0 0 0 0 0 0 0 0 0 0 0 0 0 0 0 0 0 0 127 0" result="hardAlpha"/>
<feOffset dx="-0.13" dy="0.26"/>
<feGaussianBlur stdDeviation="0.065"/>
<feComposite in2="hardAlpha" operator="arithmetic" k2="-1" k3="1"/>
<feColorMatrix type="matrix" values="0 0 0 0 1 0 0 0 0 1 0 0 0 0 1 0 0 0 0.5 0"/>
<feBlend mode="normal" in2="shape" result="effect3_innerShadow"/>
</filter>
<filter id="filter4_f" x="6.89961" y="9.4001" width="12.2" height="21.2" filterUnits="userSpaceOnUse" color-interpolation-filters="sRGB">
<feFlood flood-opacity="0" result="BackgroundImageFix"/>
<feBlend mode="normal" in="SourceGraphic" in2="BackgroundImageFix" result="shape"/>
<feGaussianBlur stdDeviation="0.1" result="effect1_foregroundBlur"/>
</filter>
<filter id="filter5_f" x="7.16647" y="9.66672" width="11.6667" height="20.6667" filterUnits="userSpaceOnUse" color-interpolation-filters="sRGB">
<feFlood flood-opacity="0" result="BackgroundImageFix"/>
<feBlend mode="normal" in="SourceGraphic" in2="BackgroundImageFix" result="shape"/>
<feGaussianBlur stdDeviation="0.0666667" result="effect1_foregroundBlur"/>
</filter>
</defs>
</svg>
