<svg width="39" height="39" viewBox="0 0 39 39" fill="none" xmlns="http://www.w3.org/2000/svg">
<g style="mix-blend-mode:hard-light" filter="url(#filter0_f)">
<ellipse cx="23.9996" cy="23.1666" rx="8.4" ry="9.1" fill="#128DFF" fill-opacity="0.2"/>
</g>
<g style="mix-blend-mode:hard-light" filter="url(#filter1_f)">
<path d="M24 15.5833C25.8565 15.5833 27.637 16.3208 28.9498 17.6335C30.2625 18.9463 31 20.7267 31 22.5833V30.7499H26.3333V22.5833C26.3333 21.9644 26.0875 21.3709 25.6499 20.9333C25.2123 20.4958 24.6188 20.2499 24 20.2499C23.3812 20.2499 22.7877 20.4958 22.3501 20.9333C21.9125 21.3709 21.6667 21.9644 21.6667 22.5833V30.7499H17V22.5833C17 20.7267 17.7375 18.9463 19.0503 17.6335C20.363 16.3208 22.1435 15.5833 24 15.5833V15.5833Z" stroke="#0094FF" stroke-width="1.3" stroke-linecap="round" stroke-linejoin="round"/>
</g>
<g style="mix-blend-mode:hard-light" filter="url(#filter2_f)">
<path d="M24 15.5833C25.8565 15.5833 27.637 16.3208 28.9498 17.6335C30.2625 18.9463 31 20.7267 31 22.5833V30.7499H26.3333V22.5833C26.3333 21.9644 26.0875 21.3709 25.6499 20.9333C25.2123 20.4958 24.6188 20.2499 24 20.2499C23.3812 20.2499 22.7877 20.4958 22.3501 20.9333C21.9125 21.3709 21.6667 21.9644 21.6667 22.5833V30.7499H17V22.5833C17 20.7267 17.7375 18.9463 19.0503 17.6335C20.363 16.3208 22.1435 15.5833 24 15.5833V15.5833Z" stroke="#0094FF" stroke-width="1.7" stroke-linecap="round" stroke-linejoin="round"/>
</g>
<g style="mix-blend-mode:hard-light" filter="url(#filter3_ddi)">
<path d="M24 15.5833C25.8565 15.5833 27.637 16.3208 28.9498 17.6335C30.2625 18.9463 31 20.7267 31 22.5833V30.7499H26.3333V22.5833C26.3333 21.9644 26.0875 21.3709 25.6499 20.9333C25.2123 20.4958 24.6188 20.2499 24 20.2499C23.3812 20.2499 22.7877 20.4958 22.3501 20.9333C21.9125 21.3709 21.6667 21.9644 21.6667 22.5833V30.7499H17V22.5833C17 20.7267 17.7375 18.9463 19.0503 17.6335C20.363 16.3208 22.1435 15.5833 24 15.5833V15.5833Z" stroke="#00B3FF" stroke-opacity="0.2" stroke-width="1.3" stroke-linecap="round" stroke-linejoin="round"/>
</g>
<g filter="url(#filter4_f)">
<path d="M24 15.5833C25.8565 15.5833 27.637 16.3208 28.9498 17.6335C30.2625 18.9463 31 20.7267 31 22.5833V30.7499H26.3333V22.5833C26.3333 21.9644 26.0875 21.3709 25.6499 20.9333C25.2123 20.4958 24.6188 20.2499 24 20.2499C23.3812 20.2499 22.7877 20.4958 22.3501 20.9333C21.9125 21.3709 21.6667 21.9644 21.6667 22.5833V30.7499H17V22.5833C17 20.7267 17.7375 18.9463 19.0503 17.6335C20.363 16.3208 22.1435 15.5833 24 15.5833V15.5833Z" stroke="#82D9FF" stroke-width="0.8" stroke-linecap="round" stroke-linejoin="round"/>
</g>
<g filter="url(#filter5_f)">
<path d="M24 15.5833C25.8565 15.5833 27.637 16.3208 28.9498 17.6335C30.2625 18.9463 31 20.7267 31 22.5833V30.7499H26.3333V22.5833C26.3333 21.9644 26.0875 21.3709 25.6499 20.9333C25.2123 20.4958 24.6188 20.2499 24 20.2499C23.3812 20.2499 22.7877 20.4958 22.3501 20.9333C21.9125 21.3709 21.6667 21.9644 21.6667 22.5833V30.7499H17V22.5833C17 20.7267 17.7375 18.9463 19.0503 17.6335C20.363 16.3208 22.1435 15.5833 24 15.5833V15.5833Z" stroke="white" stroke-width="0.4" stroke-linecap="round" stroke-linejoin="round"/>
</g>
<g style="mix-blend-mode:hard-light" filter="url(#filter6_f)">
<ellipse cx="9.66719" cy="24.0001" rx="2.8" ry="8.4" fill="#128DFF" fill-opacity="0.2"/>
</g>
<g style="mix-blend-mode:hard-light" filter="url(#filter7_f)">
<path d="M11.9997 17H7.33301V31H11.9997V17Z" stroke="#0094FF" stroke-width="1.3" stroke-linecap="round" stroke-linejoin="round"/>
</g>
<g style="mix-blend-mode:hard-light" filter="url(#filter8_f)">
<path d="M11.9997 17H7.33301V31H11.9997V17Z" stroke="#0094FF" stroke-width="1.7" stroke-linecap="round" stroke-linejoin="round"/>
</g>
<g style="mix-blend-mode:hard-light" filter="url(#filter9_ddi)">
<path d="M11.9997 17H7.33301V31H11.9997V17Z" stroke="#00B3FF" stroke-opacity="0.2" stroke-width="1.3" stroke-linecap="round" stroke-linejoin="round"/>
</g>
<g filter="url(#filter10_f)">
<path d="M11.9997 17H7.33301V31H11.9997V17Z" stroke="#82D9FF" stroke-width="0.8" stroke-linecap="round" stroke-linejoin="round"/>
</g>
<g filter="url(#filter11_f)">
<path d="M11.9997 17H7.33301V31H11.9997V17Z" stroke="white" stroke-width="0.4" stroke-linecap="round" stroke-linejoin="round"/>
</g>
<g style="mix-blend-mode:hard-light" filter="url(#filter12_f)">
<circle cx="9.66719" cy="9.6667" r="2.8" fill="#128DFF" fill-opacity="0.2"/>
</g>
<g style="mix-blend-mode:hard-light" filter="url(#filter13_f)">
<path d="M9.66634 11.9999C10.955 11.9999 11.9997 10.9552 11.9997 9.66659C11.9997 8.37792 10.955 7.33325 9.66634 7.33325C8.37768 7.33325 7.33301 8.37792 7.33301 9.66659C7.33301 10.9552 8.37768 11.9999 9.66634 11.9999Z" stroke="#0094FF" stroke-width="1.3" stroke-linecap="round" stroke-linejoin="round"/>
</g>
<g style="mix-blend-mode:hard-light" filter="url(#filter14_f)">
<path d="M9.66634 11.9999C10.955 11.9999 11.9997 10.9552 11.9997 9.66659C11.9997 8.37792 10.955 7.33325 9.66634 7.33325C8.37768 7.33325 7.33301 8.37792 7.33301 9.66659C7.33301 10.9552 8.37768 11.9999 9.66634 11.9999Z" stroke="#0094FF" stroke-width="1.7" stroke-linecap="round" stroke-linejoin="round"/>
</g>
<g style="mix-blend-mode:hard-light" filter="url(#filter15_ddi)">
<path d="M9.66634 11.9999C10.955 11.9999 11.9997 10.9552 11.9997 9.66659C11.9997 8.37792 10.955 7.33325 9.66634 7.33325C8.37768 7.33325 7.33301 8.37792 7.33301 9.66659C7.33301 10.9552 8.37768 11.9999 9.66634 11.9999Z" stroke="#00B3FF" stroke-opacity="0.2" stroke-width="1.3" stroke-linecap="round" stroke-linejoin="round"/>
</g>
<g filter="url(#filter16_f)">
<path d="M9.66634 11.9999C10.955 11.9999 11.9997 10.9552 11.9997 9.66659C11.9997 8.37792 10.955 7.33325 9.66634 7.33325C8.37768 7.33325 7.33301 8.37792 7.33301 9.66659C7.33301 10.9552 8.37768 11.9999 9.66634 11.9999Z" stroke="#82D9FF" stroke-width="0.8" stroke-linecap="round" stroke-linejoin="round"/>
</g>
<g filter="url(#filter17_f)">
<path d="M9.66634 11.9999C10.955 11.9999 11.9997 10.9552 11.9997 9.66659C11.9997 8.37792 10.955 7.33325 9.66634 7.33325C8.37768 7.33325 7.33301 8.37792 7.33301 9.66659C7.33301 10.9552 8.37768 11.9999 9.66634 11.9999Z" stroke="white" stroke-width="0.4" stroke-linecap="round" stroke-linejoin="round"/>
</g>
<defs>
<filter id="filter0_f" x="9.59961" y="8.06665" width="28.8" height="30.2" filterUnits="userSpaceOnUse" color-interpolation-filters="sRGB">
<feFlood flood-opacity="0" result="BackgroundImageFix"/>
<feBlend mode="normal" in="SourceGraphic" in2="BackgroundImageFix" result="shape"/>
<feGaussianBlur stdDeviation="3" result="effect1_foregroundBlur"/>
</filter>
<filter id="filter1_f" x="10.3496" y="8.93335" width="27.3" height="28.4667" filterUnits="userSpaceOnUse" color-interpolation-filters="sRGB">
<feFlood flood-opacity="0" result="BackgroundImageFix"/>
<feBlend mode="normal" in="SourceGraphic" in2="BackgroundImageFix" result="shape"/>
<feGaussianBlur stdDeviation="3" result="effect1_foregroundBlur"/>
</filter>
<filter id="filter2_f" x="14.1504" y="12.7332" width="19.7" height="20.8667" filterUnits="userSpaceOnUse" color-interpolation-filters="sRGB">
<feFlood flood-opacity="0" result="BackgroundImageFix"/>
<feBlend mode="normal" in="SourceGraphic" in2="BackgroundImageFix" result="shape"/>
<feGaussianBlur stdDeviation="1" result="effect1_foregroundBlur"/>
</filter>
<filter id="filter3_ddi" x="13.7496" y="14.3333" width="20.5" height="21.6667" filterUnits="userSpaceOnUse" color-interpolation-filters="sRGB">
<feFlood flood-opacity="0" result="BackgroundImageFix"/>
<feColorMatrix in="SourceAlpha" type="matrix" values="0 0 0 0 0 0 0 0 0 0 0 0 0 0 0 0 0 0 127 0"/>
<feOffset dy="1.3"/>
<feGaussianBlur stdDeviation="0.5"/>
<feColorMatrix type="matrix" values="0 0 0 0 0 0 0 0 0 0.051 0 0 0 0 0.082 0 0 0 0.7 0"/>
<feBlend mode="multiply" in2="BackgroundImageFix" result="effect1_dropShadow"/>
<feColorMatrix in="SourceAlpha" type="matrix" values="0 0 0 0 0 0 0 0 0 0 0 0 0 0 0 0 0 0 127 0"/>
<feOffset dy="2"/>
<feGaussianBlur stdDeviation="1.3"/>
<feColorMatrix type="matrix" values="0 0 0 0 0 0 0 0 0 0.4 0 0 0 0 1 0 0 0 1 0"/>
<feBlend mode="color-dodge" in2="effect1_dropShadow" result="effect2_dropShadow"/>
<feBlend mode="normal" in="SourceGraphic" in2="effect2_dropShadow" result="shape"/>
<feColorMatrix in="SourceAlpha" type="matrix" values="0 0 0 0 0 0 0 0 0 0 0 0 0 0 0 0 0 0 127 0" result="hardAlpha"/>
<feOffset dx="-0.13" dy="0.26"/>
<feGaussianBlur stdDeviation="0.065"/>
<feComposite in2="hardAlpha" operator="arithmetic" k2="-1" k3="1"/>
<feColorMatrix type="matrix" values="0 0 0 0 1 0 0 0 0 1 0 0 0 0 1 0 0 0 0.5 0"/>
<feBlend mode="normal" in2="shape" result="effect3_innerShadow"/>
</filter>
<filter id="filter4_f" x="16.3996" y="14.9833" width="15.2" height="16.3667" filterUnits="userSpaceOnUse" color-interpolation-filters="sRGB">
<feFlood flood-opacity="0" result="BackgroundImageFix"/>
<feBlend mode="normal" in="SourceGraphic" in2="BackgroundImageFix" result="shape"/>
<feGaussianBlur stdDeviation="0.1" result="effect1_foregroundBlur"/>
</filter>
<filter id="filter5_f" x="16.6665" y="15.25" width="14.6667" height="15.8333" filterUnits="userSpaceOnUse" color-interpolation-filters="sRGB">
<feFlood flood-opacity="0" result="BackgroundImageFix"/>
<feBlend mode="normal" in="SourceGraphic" in2="BackgroundImageFix" result="shape"/>
<feGaussianBlur stdDeviation="0.0666667" result="effect1_foregroundBlur"/>
</filter>
<filter id="filter6_f" x="0.867188" y="9.6001" width="17.6" height="28.8" filterUnits="userSpaceOnUse" color-interpolation-filters="sRGB">
<feFlood flood-opacity="0" result="BackgroundImageFix"/>
<feBlend mode="normal" in="SourceGraphic" in2="BackgroundImageFix" result="shape"/>
<feGaussianBlur stdDeviation="3" result="effect1_foregroundBlur"/>
</filter>
<filter id="filter7_f" x="0.682617" y="10.3501" width="17.9667" height="27.3" filterUnits="userSpaceOnUse" color-interpolation-filters="sRGB">
<feFlood flood-opacity="0" result="BackgroundImageFix"/>
<feBlend mode="normal" in="SourceGraphic" in2="BackgroundImageFix" result="shape"/>
<feGaussianBlur stdDeviation="3" result="effect1_foregroundBlur"/>
</filter>
<filter id="filter8_f" x="4.4834" y="14.1499" width="10.3667" height="19.7" filterUnits="userSpaceOnUse" color-interpolation-filters="sRGB">
<feFlood flood-opacity="0" result="BackgroundImageFix"/>
<feBlend mode="normal" in="SourceGraphic" in2="BackgroundImageFix" result="shape"/>
<feGaussianBlur stdDeviation="1" result="effect1_foregroundBlur"/>
</filter>
<filter id="filter9_ddi" x="4.08262" y="15.7501" width="11.1667" height="20.5" filterUnits="userSpaceOnUse" color-interpolation-filters="sRGB">
<feFlood flood-opacity="0" result="BackgroundImageFix"/>
<feColorMatrix in="SourceAlpha" type="matrix" values="0 0 0 0 0 0 0 0 0 0 0 0 0 0 0 0 0 0 127 0"/>
<feOffset dy="1.3"/>
<feGaussianBlur stdDeviation="0.5"/>
<feColorMatrix type="matrix" values="0 0 0 0 0 0 0 0 0 0.051 0 0 0 0 0.082 0 0 0 0.7 0"/>
<feBlend mode="multiply" in2="BackgroundImageFix" result="effect1_dropShadow"/>
<feColorMatrix in="SourceAlpha" type="matrix" values="0 0 0 0 0 0 0 0 0 0 0 0 0 0 0 0 0 0 127 0"/>
<feOffset dy="2"/>
<feGaussianBlur stdDeviation="1.3"/>
<feColorMatrix type="matrix" values="0 0 0 0 0 0 0 0 0 0.4 0 0 0 0 1 0 0 0 1 0"/>
<feBlend mode="color-dodge" in2="effect1_dropShadow" result="effect2_dropShadow"/>
<feBlend mode="normal" in="SourceGraphic" in2="effect2_dropShadow" result="shape"/>
<feColorMatrix in="SourceAlpha" type="matrix" values="0 0 0 0 0 0 0 0 0 0 0 0 0 0 0 0 0 0 127 0" result="hardAlpha"/>
<feOffset dx="-0.13" dy="0.26"/>
<feGaussianBlur stdDeviation="0.065"/>
<feComposite in2="hardAlpha" operator="arithmetic" k2="-1" k3="1"/>
<feColorMatrix type="matrix" values="0 0 0 0 1 0 0 0 0 1 0 0 0 0 1 0 0 0 0.5 0"/>
<feBlend mode="normal" in2="shape" result="effect3_innerShadow"/>
</filter>
<filter id="filter10_f" x="6.73262" y="16.4001" width="5.86667" height="15.2" filterUnits="userSpaceOnUse" color-interpolation-filters="sRGB">
<feFlood flood-opacity="0" result="BackgroundImageFix"/>
<feBlend mode="normal" in="SourceGraphic" in2="BackgroundImageFix" result="shape"/>
<feGaussianBlur stdDeviation="0.1" result="effect1_foregroundBlur"/>
</filter>
<filter id="filter11_f" x="6.99948" y="16.6667" width="5.33333" height="14.6667" filterUnits="userSpaceOnUse" color-interpolation-filters="sRGB">
<feFlood flood-opacity="0" result="BackgroundImageFix"/>
<feBlend mode="normal" in="SourceGraphic" in2="BackgroundImageFix" result="shape"/>
<feGaussianBlur stdDeviation="0.0666667" result="effect1_foregroundBlur"/>
</filter>
<filter id="filter12_f" x="0.867188" y="0.866699" width="17.6" height="17.6" filterUnits="userSpaceOnUse" color-interpolation-filters="sRGB">
<feFlood flood-opacity="0" result="BackgroundImageFix"/>
<feBlend mode="normal" in="SourceGraphic" in2="BackgroundImageFix" result="shape"/>
<feGaussianBlur stdDeviation="3" result="effect1_foregroundBlur"/>
</filter>
<filter id="filter13_f" x="0.682617" y="0.68335" width="17.9667" height="17.9667" filterUnits="userSpaceOnUse" color-interpolation-filters="sRGB">
<feFlood flood-opacity="0" result="BackgroundImageFix"/>
<feBlend mode="normal" in="SourceGraphic" in2="BackgroundImageFix" result="shape"/>
<feGaussianBlur stdDeviation="3" result="effect1_foregroundBlur"/>
</filter>
<filter id="filter14_f" x="4.4834" y="4.48315" width="10.3667" height="10.3667" filterUnits="userSpaceOnUse" color-interpolation-filters="sRGB">
<feFlood flood-opacity="0" result="BackgroundImageFix"/>
<feBlend mode="normal" in="SourceGraphic" in2="BackgroundImageFix" result="shape"/>
<feGaussianBlur stdDeviation="1" result="effect1_foregroundBlur"/>
</filter>
<filter id="filter15_ddi" x="4.08262" y="6.08335" width="11.1667" height="11.1667" filterUnits="userSpaceOnUse" color-interpolation-filters="sRGB">
<feFlood flood-opacity="0" result="BackgroundImageFix"/>
<feColorMatrix in="SourceAlpha" type="matrix" values="0 0 0 0 0 0 0 0 0 0 0 0 0 0 0 0 0 0 127 0"/>
<feOffset dy="1.3"/>
<feGaussianBlur stdDeviation="0.5"/>
<feColorMatrix type="matrix" values="0 0 0 0 0 0 0 0 0 0.051 0 0 0 0 0.082 0 0 0 0.7 0"/>
<feBlend mode="multiply" in2="BackgroundImageFix" result="effect1_dropShadow"/>
<feColorMatrix in="SourceAlpha" type="matrix" values="0 0 0 0 0 0 0 0 0 0 0 0 0 0 0 0 0 0 127 0"/>
<feOffset dy="2"/>
<feGaussianBlur stdDeviation="1.3"/>
<feColorMatrix type="matrix" values="0 0 0 0 0 0 0 0 0 0.4 0 0 0 0 1 0 0 0 1 0"/>
<feBlend mode="color-dodge" in2="effect1_dropShadow" result="effect2_dropShadow"/>
<feBlend mode="normal" in="SourceGraphic" in2="effect2_dropShadow" result="shape"/>
<feColorMatrix in="SourceAlpha" type="matrix" values="0 0 0 0 0 0 0 0 0 0 0 0 0 0 0 0 0 0 127 0" result="hardAlpha"/>
<feOffset dx="-0.13" dy="0.26"/>
<feGaussianBlur stdDeviation="0.065"/>
<feComposite in2="hardAlpha" operator="arithmetic" k2="-1" k3="1"/>
<feColorMatrix type="matrix" values="0 0 0 0 1 0 0 0 0 1 0 0 0 0 1 0 0 0 0.5 0"/>
<feBlend mode="normal" in2="shape" result="effect3_innerShadow"/>
</filter>
<filter id="filter16_f" x="6.73262" y="6.73335" width="5.86667" height="5.86667" filterUnits="userSpaceOnUse" color-interpolation-filters="sRGB">
<feFlood flood-opacity="0" result="BackgroundImageFix"/>
<feBlend mode="normal" in="SourceGraphic" in2="BackgroundImageFix" result="shape"/>
<feGaussianBlur stdDeviation="0.1" result="effect1_foregroundBlur"/>
</filter>
<filter id="filter17_f" x="6.99948" y="6.99997" width="5.33333" height="5.33333" filterUnits="userSpaceOnUse" color-interpolation-filters="sRGB">
<feFlood flood-opacity="0" result="BackgroundImageFix"/>
<feBlend mode="normal" in="SourceGraphic" in2="BackgroundImageFix" result="shape"/>
<feGaussianBlur stdDeviation="0.0666667" result="effect1_foregroundBlur"/>
</filter>
</defs>
</svg>
