<svg width="40" height="40" viewBox="0 0 40 40" fill="none" xmlns="http://www.w3.org/2000/svg">
<g style="mix-blend-mode:hard-light" filter="url(#filter0_f)">
<ellipse cx="18.568" cy="19.5352" rx="11.1403" ry="10.0066" fill="#128DFF" fill-opacity="0.2"/>
</g>
<g style="mix-blend-mode:hard-light" filter="url(#filter1_f)">
<path d="M24.0502 12.4522C24.9979 12.0545 25.6389 11.7856 25.8713 11.6909H25.8765L25.9384 11.665C26.116 11.5906 26.3043 11.5454 26.4963 11.531C26.695 11.5217 26.8921 11.5716 27.0624 11.6746C27.2632 11.8012 27.4098 11.998 27.4737 12.2268C27.5376 12.4617 27.5272 12.7177 27.4584 13.0243L27.4583 13.0243L27.4565 13.0335L24.795 26.6678L24.7808 26.7043L24.7808 26.7043L24.7804 26.7055L24.7803 26.7056L24.7802 26.706L24.7801 26.7062L24.7773 26.7129C24.7743 26.7202 24.7689 26.7324 24.7611 26.7488C24.7454 26.7816 24.7203 26.8303 24.6845 26.8879C24.6124 27.0041 24.5012 27.1502 24.3442 27.2765L24.3441 27.2766C24.0554 27.509 23.4592 27.6661 22.8551 27.4009L22.8521 27.3996L22.8122 27.3825L19.3942 24.7603L19.1725 24.5902L18.9659 24.7783L16.9145 26.6461L16.903 26.6553L16.8975 26.6592C16.8901 26.6643 16.8771 26.6728 16.8592 26.6833C16.8231 26.7046 16.7693 26.7325 16.7025 26.7566C16.5682 26.8049 16.3955 26.8332 16.2076 26.7763L16.1854 26.7696L16.1626 26.766L16.1605 26.7657C16.1528 26.7645 16.1469 26.7636 16.1423 26.7628C16.138 26.7609 16.1335 26.759 16.1287 26.757L16.1296 26.7535C16.0957 26.7435 16.0631 26.7297 16.0324 26.7123C15.9647 26.6687 15.907 26.6145 15.855 26.5458L15.8551 26.5458L15.8496 26.5389C15.7298 26.389 15.6201 26.1766 15.4974 25.7854L15.4971 25.7843C15.3613 25.3564 14.9599 24.0436 14.6379 22.9907C14.4428 22.3525 14.2768 21.8098 14.2169 21.6174L14.1662 21.4546L14.0046 21.4002L10.5167 20.2252L10.4798 20.2127C10.4601 20.2046 10.4333 20.193 10.4013 20.1779C10.3257 20.1421 10.2252 20.0882 10.1238 20.016L10.1237 20.016C9.92019 19.8712 9.68293 19.6426 9.6271 19.2803L10.777 19.5103L10.7778 19.5106L14.7632 20.8525L14.8226 21.1493L15.2317 20.8958L23.0778 16.0352L16.868 21.8231L16.7836 21.9018L16.7657 22.0158L16.23 25.4373L16.0831 26.3758L16.7851 25.7359L19.1286 23.5998L23.1282 26.6662L23.1651 26.6945L23.2083 26.7116C23.3297 26.7598 23.4521 26.7987 23.5707 26.7963C23.7296 26.7929 23.8269 26.7181 23.8715 26.6826L23.8719 26.6823C23.9263 26.639 23.9654 26.5938 23.9939 26.5534C24.0167 26.5211 24.0427 26.4741 24.0346 26.4878L24.064 26.4382L24.0751 26.3816L26.6906 12.9966H26.7377V12.6625V12.6618L26.4037 12.6512V12.3284L26.3864 12.3285C26.3809 12.3286 26.3688 12.3288 26.3546 12.33C26.3391 12.3313 26.3159 12.3341 26.2886 12.3417C26.2599 12.3496 26.2374 12.3597 26.2221 12.3675C26.2172 12.37 26.2131 12.3722 26.2102 12.3738C26.21 12.3739 26.2097 12.374 26.2093 12.3741L26.208 12.3747C26.1422 12.4007 25.0522 12.8549 23.5871 13.4702L23.5865 13.4705C22.3081 14.0104 20.6953 14.6897 19.0487 15.3832C18.8049 15.4859 18.5604 15.5889 18.3161 15.6918C16.4243 16.4882 14.5479 17.2785 13.1444 17.8698L11.4511 18.5832L10.9777 18.7827L10.8531 18.8352L10.8211 18.8487L10.8192 18.8495L10.8062 18.8541L10.7869 18.8609L10.7685 18.8701L10.7584 18.8752L9.62317 19.2522C9.62312 19.2519 9.62308 19.2515 9.62304 19.2512L9.62287 19.2498C9.59619 19.0427 9.66957 18.8286 9.76531 18.688C9.85048 18.5635 9.96002 18.4575 10.0873 18.3765L10.0874 18.3767L10.0968 18.3702C10.2103 18.2925 10.323 18.2347 10.4079 18.1964C10.45 18.1775 10.4842 18.1637 10.5071 18.155C10.5074 18.1548 10.5078 18.1547 10.5082 18.1546L10.5085 18.1555L10.5528 18.1384L10.5524 18.1372L10.5605 18.1338L10.685 18.0813L11.158 17.8818L12.8503 17.1684C14.253 16.5772 16.1287 15.7868 18.0204 14.9904L18.0205 14.9904L23.2929 12.7699C23.2929 12.7699 23.293 12.7698 23.293 12.7698C23.5631 12.6565 23.816 12.5504 24.0502 12.4522ZM16.9044 26.6543L16.9045 26.6543L16.9044 26.6543ZM26.4037 12.9966H26.4523L26.4037 12.8721L26.4496 12.9899C26.4329 12.9935 26.4194 12.9951 26.4108 12.9958C26.4081 12.996 26.4057 12.9962 26.4037 12.9963C26.4016 12.9964 26.4 12.9965 26.3988 12.9965L26.3962 12.9966L26.3957 12.9966L26.3974 12.9966L26.4037 12.9966ZM26.2037 12.3775C26.2036 12.3775 26.2043 12.3771 26.2053 12.3766L26.2047 12.3769L26.2037 12.3775Z" stroke="#0094FF" stroke-width="0.668184"/>
</g>
<g style="mix-blend-mode:hard-light" filter="url(#filter2_f)">
<path d="M24.6959 26.6391L27.3556 13.0138L27.3579 13.0017L27.3581 13.0018C27.4248 12.7047 27.4324 12.4671 27.3746 12.2542C27.3177 12.0504 27.1872 11.8751 27.0084 11.7621C26.8561 11.6702 26.6801 11.6255 26.5025 11.6336C26.3221 11.6473 26.145 11.6899 25.9781 11.7598L25.8972 11.7937H25.8915C25.6461 11.8941 25.0147 12.159 24.0904 12.5468C23.8562 12.6451 23.6032 12.7512 23.3329 12.8646C23.3328 12.8646 23.3327 12.8646 23.3326 12.8647L18.0604 15.0851L18.0603 15.0852C16.1686 15.8816 14.2929 16.6719 12.8902 17.2631L11.1979 17.9765L10.7249 18.176L10.6004 18.2285L10.5895 18.2331L10.5899 18.2342L10.5456 18.2514L10.5453 18.2504C10.5448 18.2506 10.5442 18.2508 10.5437 18.251C10.5226 18.2591 10.4902 18.2721 10.4502 18.2901C10.3691 18.3267 10.2621 18.3816 10.1549 18.455L10.1488 18.4592L10.1425 18.4632C10.027 18.5368 9.92753 18.6329 9.85021 18.7459C9.78535 18.8412 9.73298 18.9744 9.72218 19.111L10.719 18.7799L10.7226 18.7782L10.7466 18.7662L10.7718 18.7572L10.7821 18.7536L10.8131 18.7405L10.9378 18.688L11.4111 18.4885L13.1045 17.7751C14.508 17.1838 16.3844 16.3935 18.2762 15.597L24.6959 26.6391ZM24.6959 26.6391L24.685 26.667L24.685 26.667L24.6845 26.6684L24.6845 26.6684L24.6826 26.6729C24.6801 26.6788 24.6754 26.6896 24.6683 26.7045C24.6541 26.7344 24.6307 26.7797 24.5972 26.8337C24.5293 26.943 24.4254 27.0792 24.2797 27.1964L24.2797 27.1965C24.0206 27.4051 23.4651 27.5564 22.8964 27.3067L22.8925 27.305L22.8645 27.2931L19.4567 24.6787L19.1668 24.4563L18.8967 24.7023L16.8477 26.5679L16.8412 26.5732L16.8394 26.5744C16.8337 26.5783 16.8227 26.5855 16.8071 26.5947C16.7754 26.6134 16.7273 26.6384 16.6676 26.6599C16.5475 26.7032 16.3982 26.7266 16.2374 26.6779L16.2084 26.6692L16.1785 26.6645L16.1711 26.6633C16.1669 26.6615 16.1624 26.6598 16.1579 26.658L16.1587 26.6549C16.1332 26.6474 16.1087 26.6371 16.0855 26.6242C16.0621 26.609 16.04 26.5921 16.0189 26.5734L16.8544 25.8118L19.1343 23.7337L23.0657 26.7478L23.1139 26.7847L23.1703 26.8072C23.2934 26.856 23.4323 26.902 23.5729 26.899C23.7662 26.895 23.8857 26.8027 23.9355 26.7631L23.936 26.7627C23.9989 26.7125 24.0446 26.6599 24.0779 26.6127C24.1037 26.5761 24.1355 26.5194 24.1231 26.5402L24.1615 26.4753L24.176 26.4013L26.7752 13.0994M24.6959 26.6391L26.7752 13.0994M26.7752 13.0994H26.8405V12.6625V12.6618L26.4037 12.6479V12.2256L26.3851 12.2257C26.3789 12.2258 26.3639 12.226 26.346 12.2275C26.3264 12.2292 26.2965 12.2329 26.2612 12.2426C26.2242 12.2528 26.1951 12.2659 26.1755 12.2758C26.1726 12.2773 26.1696 12.2789 26.1667 12.2805C26.0722 12.3185 24.9909 12.7692 23.5473 13.3754L23.5465 13.3758C22.2686 13.9155 20.6566 14.5945 19.0106 15.2877C18.7662 15.3906 18.5211 15.4939 18.2763 15.597L26.7752 13.0994ZM9.76489 19.4127L10.7505 19.6098L14.6741 20.9309L14.7508 21.3147L15.2859 20.9832L22.2413 16.6743L16.7979 21.7479L16.6875 21.8508L16.6642 21.9999L16.1284 25.4214L15.958 26.5102C15.9509 26.5017 15.9439 26.4929 15.937 26.4838L15.9371 26.4837L15.9299 26.4747C15.8213 26.3389 15.7164 26.1401 15.5955 25.7546L15.5951 25.7532C15.4593 25.3254 15.0588 24.0157 14.7371 22.9635C14.5417 22.3244 14.3753 21.7803 14.3151 21.5869L14.2487 21.374L14.0374 21.3028L10.5496 20.1278L10.5159 20.1164C10.498 20.109 10.4739 20.0985 10.4453 20.085C10.3736 20.051 10.2787 20.0001 10.1834 19.9323L10.1833 19.9322C10.0207 19.8165 9.8464 19.6524 9.76489 19.4127ZM23.7936 15.214C23.7936 15.214 23.7933 15.2145 23.7927 15.2155L23.7936 15.214Z" stroke="#0094FF" stroke-width="0.873779"/>
</g>
<g style="mix-blend-mode:hard-light" filter="url(#filter3_ddi)">
<path d="M24.0502 12.4522C24.9979 12.0545 25.6389 11.7856 25.8713 11.6909H25.8765L25.9384 11.665C26.116 11.5906 26.3043 11.5454 26.4963 11.531C26.695 11.5217 26.8921 11.5716 27.0624 11.6746C27.2632 11.8012 27.4098 11.998 27.4737 12.2268C27.5376 12.4617 27.5272 12.7177 27.4584 13.0243L27.4583 13.0243L27.4565 13.0335L24.795 26.6678L24.7808 26.7043L24.7808 26.7043L24.7804 26.7055L24.7803 26.7056L24.7802 26.706L24.7801 26.7062L24.7773 26.7129C24.7743 26.7202 24.7689 26.7324 24.7611 26.7488C24.7454 26.7816 24.7203 26.8303 24.6845 26.8879C24.6124 27.0041 24.5012 27.1502 24.3442 27.2765L24.3441 27.2766C24.0554 27.509 23.4592 27.6661 22.8551 27.4009L22.8521 27.3996L22.8122 27.3825L19.3942 24.7603L19.1725 24.5902L18.9659 24.7783L16.9145 26.6461L16.903 26.6553L16.8975 26.6592C16.8901 26.6643 16.8771 26.6728 16.8592 26.6833C16.8231 26.7046 16.7693 26.7325 16.7025 26.7566C16.5682 26.8049 16.3955 26.8332 16.2076 26.7763L16.1854 26.7696L16.1626 26.766L16.1605 26.7657C16.1528 26.7645 16.1469 26.7636 16.1423 26.7628C16.138 26.7609 16.1335 26.759 16.1287 26.757L16.1296 26.7535C16.0957 26.7435 16.0631 26.7297 16.0324 26.7123C15.9647 26.6687 15.907 26.6145 15.855 26.5458L15.8551 26.5458L15.8496 26.5389C15.7298 26.389 15.6201 26.1766 15.4974 25.7854L15.4971 25.7843C15.3613 25.3564 14.9599 24.0436 14.6379 22.9907C14.4428 22.3525 14.2768 21.8098 14.2169 21.6174L14.1662 21.4546L14.0046 21.4002L10.5167 20.2252L10.4798 20.2127C10.4601 20.2046 10.4333 20.193 10.4013 20.1779C10.3257 20.1421 10.2252 20.0882 10.1238 20.016L10.1237 20.016C9.92019 19.8712 9.68293 19.6426 9.6271 19.2803L10.777 19.5103L10.7778 19.5106L14.7632 20.8525L14.8226 21.1493L15.2317 20.8958L23.0778 16.0352L16.868 21.8231L16.7836 21.9018L16.7657 22.0158L16.23 25.4373L16.0831 26.3758L16.7851 25.7359L19.1286 23.5998L23.1282 26.6662L23.1651 26.6945L23.2083 26.7116C23.3297 26.7598 23.4521 26.7987 23.5707 26.7963C23.7296 26.7929 23.8269 26.7181 23.8715 26.6826L23.8719 26.6823C23.9263 26.639 23.9654 26.5938 23.9939 26.5534C24.0167 26.5211 24.0427 26.4741 24.0346 26.4878L24.064 26.4382L24.0751 26.3816L26.6906 12.9966H26.7377V12.6625V12.6618L26.4037 12.6512V12.3284L26.3864 12.3285C26.3809 12.3286 26.3688 12.3288 26.3546 12.33C26.3391 12.3313 26.3159 12.3341 26.2886 12.3417C26.2599 12.3496 26.2374 12.3597 26.2221 12.3675C26.2172 12.37 26.2131 12.3722 26.2102 12.3738C26.21 12.3739 26.2097 12.374 26.2093 12.3741L26.208 12.3747C26.1422 12.4007 25.0522 12.8549 23.5871 13.4702L23.5865 13.4705C22.3081 14.0104 20.6953 14.6897 19.0487 15.3832C18.8049 15.4859 18.5604 15.5889 18.3161 15.6918C16.4243 16.4882 14.5479 17.2785 13.1444 17.8698L11.4511 18.5832L10.9777 18.7827L10.8531 18.8352L10.8211 18.8487L10.8192 18.8495L10.8062 18.8541L10.7869 18.8609L10.7685 18.8701L10.7584 18.8752L9.62317 19.2522C9.62312 19.2519 9.62308 19.2515 9.62304 19.2512L9.62287 19.2498C9.59619 19.0427 9.66957 18.8286 9.76531 18.688C9.85048 18.5635 9.96002 18.4575 10.0873 18.3765L10.0874 18.3767L10.0968 18.3702C10.2103 18.2925 10.323 18.2347 10.4079 18.1964C10.45 18.1775 10.4842 18.1637 10.5071 18.155C10.5074 18.1548 10.5078 18.1547 10.5082 18.1546L10.5085 18.1555L10.5528 18.1384L10.5524 18.1372L10.5605 18.1338L10.685 18.0813L11.158 17.8818L12.8503 17.1684C14.253 16.5772 16.1287 15.7868 18.0204 14.9904L18.0205 14.9904L23.2929 12.7699C23.2929 12.7699 23.293 12.7698 23.293 12.7698C23.5631 12.6565 23.816 12.5504 24.0502 12.4522ZM16.9044 26.6543L16.9045 26.6543L16.9044 26.6543ZM26.4037 12.9966H26.4523L26.4037 12.8721L26.4496 12.9899C26.4329 12.9935 26.4194 12.9951 26.4108 12.9958C26.4081 12.996 26.4057 12.9962 26.4037 12.9963C26.4016 12.9964 26.4 12.9965 26.3988 12.9965L26.3962 12.9966L26.3957 12.9966L26.3974 12.9966L26.4037 12.9966ZM26.2037 12.3775C26.2036 12.3775 26.2043 12.3771 26.2053 12.3766L26.2047 12.3769L26.2037 12.3775Z" stroke="#00B3FF" stroke-opacity="0.2" stroke-width="0.668184"/>
</g>
<g filter="url(#filter4_f)">
<path d="M16.1427 26.893C16.1231 26.8899 16.1115 26.8881 16.1027 26.8864C16.1021 26.8861 16.1016 26.8858 16.101 26.8855C16.0983 26.8841 16.0953 26.8827 16.0921 26.8812L16.0933 26.8767C16.0488 26.8636 16.0061 26.8454 15.9659 26.8223C15.8833 26.7697 15.8137 26.7041 15.7526 26.6234L15.7526 26.6234L15.7493 26.6191C15.6153 26.4516 15.4998 26.2223 15.3748 25.8238L15.3746 25.8232C15.2387 25.395 14.8362 24.0787 14.514 23.0248C14.3192 22.3877 14.1537 21.8466 14.0942 21.6556L14.063 21.5555L13.9636 21.522L10.4757 20.347L10.4438 20.3362H10.4423C10.4419 20.3361 10.4416 20.3359 10.4412 20.3358C10.4191 20.3268 10.3863 20.313 10.3463 20.294C10.2659 20.2559 10.1584 20.1984 10.0493 20.1207L10.0493 20.1207C9.82836 19.9636 9.54934 19.6988 9.49553 19.2671L9.49542 19.2662C9.4639 19.0215 9.5497 18.7763 9.65915 18.6156C9.75414 18.4767 9.87633 18.3585 10.0183 18.2681L10.0184 18.2682L10.0242 18.2642C10.1455 18.1811 10.2653 18.1198 10.3551 18.0793C10.3997 18.0592 10.4364 18.0444 10.4613 18.0349C10.4614 18.0349 10.4616 18.0348 10.4618 18.0347L10.4622 18.0357L10.5064 18.0185L10.506 18.0173L10.5105 18.0154L10.635 17.9629L11.1081 17.7634L12.8004 17.05C14.2031 16.4588 16.0788 15.6684 17.9706 14.872L17.9706 14.872L23.2432 12.6514C23.2432 12.6514 23.2432 12.6514 23.2433 12.6513C23.513 12.5382 23.7657 12.4322 23.9997 12.334C24.9801 11.9227 25.6337 11.6484 25.8462 11.5624H25.8507L25.8888 11.5464C26.0796 11.4665 26.2821 11.418 26.4884 11.4027C26.7137 11.3918 26.9371 11.4484 27.1299 11.5653C27.3584 11.709 27.5251 11.9327 27.5976 12.1927C27.669 12.4551 27.6553 12.7341 27.5838 13.0525L27.5837 13.0524L27.5826 13.0581L24.919 26.7037L24.9006 26.7509L24.9006 26.7508L24.9001 26.7521L24.9001 26.7522L24.9 26.7524L24.9 26.7526L24.8999 26.7527L24.8999 26.7528L24.8995 26.7537L24.8957 26.763C24.8919 26.7719 24.8857 26.7859 24.8771 26.8041C24.8597 26.8406 24.8323 26.8935 24.7937 26.9556C24.7162 27.0806 24.5959 27.2388 24.4247 27.3766L24.4247 27.3767C24.099 27.639 23.4519 27.8032 22.8034 27.5185L22.8016 27.5177L22.7468 27.4943L19.3159 24.8622L19.1795 24.7576L19.0524 24.8733L16.9979 26.7439L16.9806 26.7578L16.9802 26.7581L16.9702 26.7652C16.9605 26.7718 16.945 26.782 16.9243 26.7941C16.8828 26.8185 16.8217 26.8502 16.746 26.8775C16.5942 26.9322 16.3922 26.9665 16.1704 26.8993L16.1567 26.8952L16.1427 26.893ZM26.6092 12.6618L26.4037 12.6553V12.4569L26.4016 12.4569C26.3946 12.4569 26.3791 12.4568 26.3654 12.458C26.3551 12.4589 26.3401 12.4607 26.3228 12.4655C26.3046 12.4706 26.2902 12.477 26.2803 12.4821C26.2759 12.4843 26.2723 12.4863 26.2705 12.4873L26.2682 12.4886L26.2673 12.4891C26.2676 12.489 26.2676 12.489 26.2671 12.4892C26.2661 12.4897 26.2627 12.4912 26.2561 12.4938L26.2552 12.4942C26.1911 12.5195 25.103 12.973 23.6369 13.5887L23.6365 13.5888C22.3581 14.1288 20.7453 14.8081 19.0986 15.5016C18.8548 15.6043 18.6103 15.7073 18.366 15.8102C16.4742 16.6066 14.5978 17.397 13.1943 17.9882L11.501 18.7016L11.0276 18.9011L10.903 18.9536L10.871 18.9671L10.8657 18.9693L10.8492 18.9752L10.8373 18.9794L10.826 18.985L10.8076 18.9942L10.0725 19.2384L10.8103 19.3859L10.8188 19.3888L14.8747 20.7544L14.9123 20.9426L15.1641 20.7866L23.8522 15.4043L23.8582 15.4015C23.8675 15.3972 23.8814 15.3911 23.898 15.3845C23.9223 15.375 23.9487 15.366 23.9737 15.3597L23.9737 15.3598C23.9542 15.3857 23.9181 15.4278 23.853 15.4884L23.8528 15.4885L16.9556 21.9171L16.9037 21.9655L16.8927 22.0357L16.357 25.4571L16.2665 26.0347L16.6986 25.6409L19.1215 23.4325L23.2064 26.5642L23.2291 26.5816L23.2557 26.5922C23.375 26.6396 23.477 26.6697 23.568 26.6678C23.6839 26.6654 23.7534 26.6124 23.7916 26.582L23.7918 26.5818C23.8354 26.5471 23.8664 26.5112 23.8889 26.4793C23.9079 26.4524 23.9269 26.4176 23.9241 26.4223L23.9422 26.3918L23.949 26.3569L26.5848 12.8681H26.6092V12.6625V12.6618Z" stroke="#82D9FF" stroke-width="0.41119"/>
</g>
<g filter="url(#filter5_f)">
<path d="M9.48937 18.4997L9.57423 18.5577C9.67708 18.4072 9.80938 18.2792 9.96313 18.1814L9.96316 18.1814L9.96605 18.1794C10.0937 18.092 10.2191 18.0278 10.3128 17.9856C10.3595 17.9645 10.3981 17.949 10.4246 17.9389C10.4246 17.9389 10.4247 17.9389 10.4247 17.9389L10.425 17.9398L10.4693 17.9227L10.4689 17.9214L10.4706 17.9207L10.5951 17.8681L11.0681 17.6687L12.7605 16.9553C14.1632 16.364 16.0389 15.5737 17.9307 14.7773L17.9307 14.7772L23.2034 12.5566C23.2034 12.5566 23.2035 12.5566 23.2035 12.5566C23.4729 12.4436 23.7254 12.3376 23.9593 12.2395C24.9693 11.8157 25.6339 11.5369 25.8263 11.4596H25.83L25.8491 11.4516C26.0505 11.3672 26.2643 11.3161 26.4821 11.3001C26.7286 11.2879 26.973 11.3498 27.1839 11.4778C27.4346 11.6352 27.6174 11.8805 27.6967 12.1656C27.7742 12.45 27.7577 12.7473 27.6841 13.075L27.684 13.075L27.6835 13.0778L25.0181 26.7324L24.9964 26.7881L24.9961 26.7889L24.9961 26.789L24.9961 26.789L24.996 26.7891L24.9959 26.7893L24.995 26.7918L24.9903 26.8031C24.986 26.8133 24.9792 26.8287 24.9698 26.8484C24.951 26.8877 24.9219 26.944 24.881 27.0098C24.7992 27.1417 24.6718 27.3098 24.4892 27.4567L24.4892 27.4567C24.1338 27.7429 23.446 27.9128 22.7621 27.6127L22.7612 27.6123L22.6945 27.5838L19.2534 24.9438L19.1852 24.8915L19.1216 24.9494L17.0647 26.8221L17.0434 26.8392L17.0433 26.8393L17.0408 26.8412L17.0283 26.85C17.0168 26.8578 16.9993 26.8693 16.9765 26.8827C16.9306 26.9097 16.8637 26.9443 16.7809 26.9742C16.615 27.0339 16.3895 27.0731 16.1406 26.9977L16.1338 26.9956L16.1267 26.9945L16.1242 26.9941C16.0958 26.9897 16.0815 26.9874 16.0658 26.9837C16.0648 26.983 16.0637 26.9824 16.0625 26.9816L16.0642 26.9753C16.0113 26.9597 15.9604 26.9379 15.9126 26.9103C15.8181 26.8504 15.739 26.7758 15.6706 26.6855L15.6706 26.6854L15.669 26.6833C15.5238 26.5017 15.4035 26.2588 15.2767 25.8546L15.2766 25.8543C15.1407 25.4259 14.7372 24.1065 14.4148 23.0519C14.2203 22.4158 14.0552 21.876 13.9961 21.6862L13.9805 21.6361L13.9308 21.6194L10.4429 20.4444L10.4269 20.439H10.4228C10.4174 20.4369 10.4107 20.4343 10.4028 20.4311C10.379 20.4215 10.3444 20.4068 10.3023 20.3869C10.218 20.347 10.105 20.2865 9.98969 20.2045L9.98967 20.2045C9.75922 20.0405 9.45257 19.7535 9.39352 19.2798L9.39347 19.2794C9.35806 19.0045 9.45385 18.7343 9.57432 18.5575L9.48937 18.4997ZM9.48937 18.4997C9.35794 18.6925 9.25222 18.9875 9.29151 19.2925L10.3861 17.8435C10.3005 17.8763 10.1074 17.958 9.90794 18.0947C9.74246 18.2 9.60006 18.3377 9.48937 18.4997ZM26.5064 12.6618L26.4037 12.6585V12.5597L26.4013 12.5597C26.3934 12.5597 26.3829 12.5597 26.3741 12.5604C26.3678 12.561 26.3596 12.562 26.3502 12.5646C26.3403 12.5673 26.3325 12.5708 26.3268 12.5737C26.3227 12.5758 26.318 12.5785 26.3178 12.5787L26.3141 12.5806C26.3115 12.582 26.3055 12.5849 26.2934 12.5896L26.293 12.5898C26.2302 12.6146 25.1437 13.0674 23.6767 13.6834L23.6765 13.6835C22.398 14.2236 20.7851 14.9029 19.1384 15.5964C18.8947 15.6991 18.6502 15.802 18.4059 15.9049C16.5141 16.7013 14.6377 17.4917 13.2342 18.083L11.5409 18.7964L11.0675 18.9958L10.9429 19.0483L10.911 19.0618L10.9029 19.0652L10.9029 19.0652L10.8836 19.0721L10.8833 19.0713L10.872 19.077L10.8504 19.0878C10.8474 19.0891 10.8444 19.0903 10.8413 19.0914L10.4731 19.2137L10.8369 19.2864L10.8516 19.2914L14.9638 20.676L14.984 20.7772L15.1099 20.6992L23.8029 15.3139L23.803 15.3139L23.8152 15.3081C23.826 15.3031 23.8416 15.2962 23.8604 15.2889C23.8989 15.2737 23.9464 15.2582 23.9906 15.2514C24.0388 15.2441 24.0624 15.2504 24.0698 15.2549C24.0712 15.2557 24.0727 15.2566 24.0747 15.2615C24.0773 15.2678 24.0814 15.2829 24.0796 15.3126L24.0757 15.3757L24.0834 15.3801C24.0658 15.4118 24.0232 15.4705 23.9229 15.5636L23.9228 15.5637L17.0257 21.9923L16.9997 22.0165L16.9942 22.0516L16.4585 25.473L16.4133 25.7618L16.6293 25.5649L19.1158 23.2986L23.269 26.4827L23.2803 26.4914L23.2936 26.4966C23.4113 26.5434 23.4968 26.5665 23.5659 26.565C23.6474 26.5633 23.6946 26.5278 23.7276 26.5016L23.7277 26.5015C23.7907 26.4513 23.8204 26.3975 23.8321 26.3762C23.8336 26.3736 23.8347 26.3715 23.8357 26.3699L23.8447 26.3546L23.8481 26.3372L26.4903 12.8158L26.4922 12.806V12.7998C26.495 12.7869 26.4974 12.7755 26.4993 12.7653H26.5064V12.6625V12.6618Z" stroke="white" stroke-width="0.205595"/>
</g>
<defs>
<filter id="filter0_f" x="4.34381" y="6.44464" width="28.4484" height="26.1811" filterUnits="userSpaceOnUse" color-interpolation-filters="sRGB">
<feFlood flood-opacity="0" result="BackgroundImageFix"/>
<feBlend mode="normal" in="SourceGraphic" in2="BackgroundImageFix" result="shape"/>
<feGaussianBlur stdDeviation="1.54196" result="effect1_foregroundBlur"/>
</filter>
<filter id="filter1_f" x="6.19928" y="8.11188" width="24.735" height="22.8456" filterUnits="userSpaceOnUse" color-interpolation-filters="sRGB">
<feFlood flood-opacity="0" result="BackgroundImageFix"/>
<feBlend mode="normal" in="SourceGraphic" in2="BackgroundImageFix" result="shape"/>
<feGaussianBlur stdDeviation="1.54196" result="effect1_foregroundBlur"/>
</filter>
<filter id="filter2_f" x="8.25523" y="10.1678" width="20.6231" height="18.7337" filterUnits="userSpaceOnUse" color-interpolation-filters="sRGB">
<feFlood flood-opacity="0" result="BackgroundImageFix"/>
<feBlend mode="normal" in="SourceGraphic" in2="BackgroundImageFix" result="shape"/>
<feGaussianBlur stdDeviation="0.513988" result="effect1_foregroundBlur"/>
</filter>
<filter id="filter3_ddi" x="7.94684" y="10.8874" width="21.2399" height="19.3504" filterUnits="userSpaceOnUse" color-interpolation-filters="sRGB">
<feFlood flood-opacity="0" result="BackgroundImageFix"/>
<feColorMatrix in="SourceAlpha" type="matrix" values="0 0 0 0 0 0 0 0 0 0 0 0 0 0 0 0 0 0 127 0"/>
<feOffset dy="0.668184"/>
<feGaussianBlur stdDeviation="0.256994"/>
<feColorMatrix type="matrix" values="0 0 0 0 0 0 0 0 0 0.051 0 0 0 0 0.082 0 0 0 0.7 0"/>
<feBlend mode="multiply" in2="BackgroundImageFix" result="effect1_dropShadow"/>
<feColorMatrix in="SourceAlpha" type="matrix" values="0 0 0 0 0 0 0 0 0 0 0 0 0 0 0 0 0 0 127 0"/>
<feOffset dy="1.02798"/>
<feGaussianBlur stdDeviation="0.668184"/>
<feColorMatrix type="matrix" values="0 0 0 0 0 0 0 0 0 0.4 0 0 0 0 1 0 0 0 1 0"/>
<feBlend mode="color-dodge" in2="effect1_dropShadow" result="effect2_dropShadow"/>
<feBlend mode="normal" in="SourceGraphic" in2="effect2_dropShadow" result="shape"/>
<feColorMatrix in="SourceAlpha" type="matrix" values="0 0 0 0 0 0 0 0 0 0 0 0 0 0 0 0 0 0 127 0" result="hardAlpha"/>
<feOffset dx="-0.0668184" dy="0.133637"/>
<feGaussianBlur stdDeviation="0.0334092"/>
<feComposite in2="hardAlpha" operator="arithmetic" k2="-1" k3="1"/>
<feColorMatrix type="matrix" values="0 0 0 0 1 0 0 0 0 1 0 0 0 0 1 0 0 0 0.5 0"/>
<feBlend mode="normal" in2="shape" result="effect3_innerShadow"/>
</filter>
<filter id="filter4_f" x="9.18041" y="11.093" width="18.7728" height="16.8833" filterUnits="userSpaceOnUse" color-interpolation-filters="sRGB">
<feFlood flood-opacity="0" result="BackgroundImageFix"/>
<feBlend mode="normal" in="SourceGraphic" in2="BackgroundImageFix" result="shape"/>
<feGaussianBlur stdDeviation="0.0513988" result="effect1_foregroundBlur"/>
</filter>
<filter id="filter5_f" x="9.21467" y="11.1273" width="18.7042" height="16.8148" filterUnits="userSpaceOnUse" color-interpolation-filters="sRGB">
<feFlood flood-opacity="0" result="BackgroundImageFix"/>
<feBlend mode="normal" in="SourceGraphic" in2="BackgroundImageFix" result="shape"/>
<feGaussianBlur stdDeviation="0.0342658" result="effect1_foregroundBlur"/>
</filter>
</defs>
</svg>
