<svg width="31" height="26" viewBox="0 0 31 26" fill="none" xmlns="http://www.w3.org/2000/svg">
<g style="mix-blend-mode:hard-light" filter="url(#filter0_f)">
<ellipse cx="15.5002" cy="12.9999" rx="9.3" ry="6.6" fill="#128DFF" fill-opacity="0.2"/>
</g>
<g style="mix-blend-mode:hard-light" filter="url(#filter1_f)">
<path d="M23.25 7.50616C22.5753 7.92025 21.8283 8.23696 21.0377 8.4441C20.6134 8.01958 20.0495 7.7187 19.4222 7.58213C18.795 7.44557 18.1346 7.47992 17.5306 7.68054C16.9265 7.88116 16.4078 8.23837 16.0446 8.70385C15.6814 9.16933 15.4913 9.72063 15.5 10.2832V10.8962C14.2619 10.9242 13.035 10.6852 11.9287 10.2007C10.8223 9.71618 9.87091 9.00112 9.15909 8.11919C9.15909 8.11919 6.34091 13.6365 12.6818 16.0886C11.2308 16.9456 9.50232 17.3753 7.75 17.3146C14.0909 20.3798 21.8409 17.3146 21.8409 10.2648C21.8403 10.094 21.8214 9.9237 21.7845 9.75598C22.5036 9.13896 23.011 8.35994 23.25 7.50616V7.50616Z" stroke="#0094FF" stroke-width="1.3" stroke-linecap="round" stroke-linejoin="round"/>
</g>
<g style="mix-blend-mode:hard-light" filter="url(#filter2_f)">
<path d="M23.25 7.50616C22.5753 7.92025 21.8283 8.23696 21.0377 8.4441C20.6134 8.01958 20.0495 7.7187 19.4222 7.58213C18.795 7.44557 18.1346 7.47992 17.5306 7.68054C16.9265 7.88116 16.4078 8.23837 16.0446 8.70385C15.6814 9.16933 15.4913 9.72063 15.5 10.2832V10.8962C14.2619 10.9242 13.035 10.6852 11.9287 10.2007C10.8223 9.71618 9.87091 9.00112 9.15909 8.11919C9.15909 8.11919 6.34091 13.6365 12.6818 16.0886C11.2308 16.9456 9.50232 17.3753 7.75 17.3146C14.0909 20.3798 21.8409 17.3146 21.8409 10.2648C21.8403 10.094 21.8214 9.9237 21.7845 9.75598C22.5036 9.13896 23.011 8.35994 23.25 7.50616V7.50616Z" stroke="#0094FF" stroke-width="1.7" stroke-linecap="round" stroke-linejoin="round"/>
</g>
<g style="mix-blend-mode:hard-light" filter="url(#filter3_ddi)">
<path d="M23.25 7.50616C22.5753 7.92025 21.8283 8.23696 21.0377 8.4441C20.6134 8.01958 20.0495 7.7187 19.4222 7.58213C18.795 7.44557 18.1346 7.47992 17.5306 7.68054C16.9265 7.88116 16.4078 8.23837 16.0446 8.70385C15.6814 9.16933 15.4913 9.72063 15.5 10.2832V10.8962C14.2619 10.9242 13.035 10.6852 11.9287 10.2007C10.8223 9.71618 9.87091 9.00112 9.15909 8.11919C9.15909 8.11919 6.34091 13.6365 12.6818 16.0886C11.2308 16.9456 9.50232 17.3753 7.75 17.3146C14.0909 20.3798 21.8409 17.3146 21.8409 10.2648C21.8403 10.094 21.8214 9.9237 21.7845 9.75598C22.5036 9.13896 23.011 8.35994 23.25 7.50616V7.50616Z" stroke="#00B3FF" stroke-opacity="0.2" stroke-width="1.3" stroke-linecap="round" stroke-linejoin="round"/>
</g>
<g filter="url(#filter4_f)">
<path d="M23.25 7.50616C22.5753 7.92025 21.8283 8.23696 21.0377 8.4441C20.6134 8.01958 20.0495 7.7187 19.4222 7.58213C18.795 7.44557 18.1346 7.47992 17.5306 7.68054C16.9265 7.88116 16.4078 8.23837 16.0446 8.70385C15.6814 9.16933 15.4913 9.72063 15.5 10.2832V10.8962C14.2619 10.9242 13.035 10.6852 11.9287 10.2007C10.8223 9.71618 9.87091 9.00112 9.15909 8.11919C9.15909 8.11919 6.34091 13.6365 12.6818 16.0886C11.2308 16.9456 9.50232 17.3753 7.75 17.3146C14.0909 20.3798 21.8409 17.3146 21.8409 10.2648C21.8403 10.094 21.8214 9.9237 21.7845 9.75598C22.5036 9.13896 23.011 8.35994 23.25 7.50616V7.50616Z" stroke="#82D9FF" stroke-width="0.8" stroke-linecap="round" stroke-linejoin="round"/>
</g>
<g filter="url(#filter5_f)">
<path d="M23.25 7.50616C22.5753 7.92025 21.8283 8.23696 21.0377 8.4441C20.6134 8.01958 20.0495 7.7187 19.4222 7.58213C18.795 7.44557 18.1346 7.47992 17.5306 7.68054C16.9265 7.88116 16.4078 8.23837 16.0446 8.70385C15.6814 9.16933 15.4913 9.72063 15.5 10.2832V10.8962C14.2619 10.9242 13.035 10.6852 11.9287 10.2007C10.8223 9.71618 9.87091 9.00112 9.15909 8.11919C9.15909 8.11919 6.34091 13.6365 12.6818 16.0886C11.2308 16.9456 9.50232 17.3753 7.75 17.3146C14.0909 20.3798 21.8409 17.3146 21.8409 10.2648C21.8403 10.094 21.8214 9.9237 21.7845 9.75598C22.5036 9.13896 23.011 8.35994 23.25 7.50616V7.50616Z" stroke="white" stroke-width="0.4" stroke-linecap="round" stroke-linejoin="round"/>
</g>
<defs>
<filter id="filter0_f" x="0.200195" y="0.399902" width="30.6" height="25.2" filterUnits="userSpaceOnUse" color-interpolation-filters="sRGB">
<feFlood flood-opacity="0" result="BackgroundImageFix"/>
<feBlend mode="normal" in="SourceGraphic" in2="BackgroundImageFix" result="shape"/>
<feGaussianBlur stdDeviation="3" result="effect1_foregroundBlur"/>
</filter>
<filter id="filter1_f" x="1.09961" y="0.850098" width="28.776" height="24.3" filterUnits="userSpaceOnUse" color-interpolation-filters="sRGB">
<feFlood flood-opacity="0" result="BackgroundImageFix"/>
<feBlend mode="normal" in="SourceGraphic" in2="BackgroundImageFix" result="shape"/>
<feGaussianBlur stdDeviation="3" result="effect1_foregroundBlur"/>
</filter>
<filter id="filter2_f" x="4.90039" y="4.6499" width="21.1686" height="16.7" filterUnits="userSpaceOnUse" color-interpolation-filters="sRGB">
<feFlood flood-opacity="0" result="BackgroundImageFix"/>
<feBlend mode="normal" in="SourceGraphic" in2="BackgroundImageFix" result="shape"/>
<feGaussianBlur stdDeviation="1" result="effect1_foregroundBlur"/>
</filter>
<filter id="filter3_ddi" x="4.49961" y="6.2501" width="21.976" height="17.5" filterUnits="userSpaceOnUse" color-interpolation-filters="sRGB">
<feFlood flood-opacity="0" result="BackgroundImageFix"/>
<feColorMatrix in="SourceAlpha" type="matrix" values="0 0 0 0 0 0 0 0 0 0 0 0 0 0 0 0 0 0 127 0"/>
<feOffset dy="1.3"/>
<feGaussianBlur stdDeviation="0.5"/>
<feColorMatrix type="matrix" values="0 0 0 0 0 0 0 0 0 0.051 0 0 0 0 0.082 0 0 0 0.7 0"/>
<feBlend mode="multiply" in2="BackgroundImageFix" result="effect1_dropShadow"/>
<feColorMatrix in="SourceAlpha" type="matrix" values="0 0 0 0 0 0 0 0 0 0 0 0 0 0 0 0 0 0 127 0"/>
<feOffset dy="2"/>
<feGaussianBlur stdDeviation="1.3"/>
<feColorMatrix type="matrix" values="0 0 0 0 0 0 0 0 0 0.4 0 0 0 0 1 0 0 0 1 0"/>
<feBlend mode="color-dodge" in2="effect1_dropShadow" result="effect2_dropShadow"/>
<feBlend mode="normal" in="SourceGraphic" in2="effect2_dropShadow" result="shape"/>
<feColorMatrix in="SourceAlpha" type="matrix" values="0 0 0 0 0 0 0 0 0 0 0 0 0 0 0 0 0 0 127 0" result="hardAlpha"/>
<feOffset dx="-0.13" dy="0.26"/>
<feGaussianBlur stdDeviation="0.065"/>
<feComposite in2="hardAlpha" operator="arithmetic" k2="-1" k3="1"/>
<feColorMatrix type="matrix" values="0 0 0 0 1 0 0 0 0 1 0 0 0 0 1 0 0 0 0.5 0"/>
<feBlend mode="normal" in2="shape" result="effect3_innerShadow"/>
</filter>
<filter id="filter4_f" x="7.14961" y="6.9001" width="16.6852" height="12.2" filterUnits="userSpaceOnUse" color-interpolation-filters="sRGB">
<feFlood flood-opacity="0" result="BackgroundImageFix"/>
<feBlend mode="normal" in="SourceGraphic" in2="BackgroundImageFix" result="shape"/>
<feGaussianBlur stdDeviation="0.1" result="effect1_foregroundBlur"/>
</filter>
<filter id="filter5_f" x="7.41647" y="7.16672" width="16.1593" height="11.6667" filterUnits="userSpaceOnUse" color-interpolation-filters="sRGB">
<feFlood flood-opacity="0" result="BackgroundImageFix"/>
<feBlend mode="normal" in="SourceGraphic" in2="BackgroundImageFix" result="shape"/>
<feGaussianBlur stdDeviation="0.0666667" result="effect1_foregroundBlur"/>
</filter>
</defs>
</svg>
