<svg width="24" height="24" viewBox="0 0 24 24" fill="none" xmlns="http://www.w3.org/2000/svg">
<g clip-path="url(#clip0)">
<g style="mix-blend-mode:hard-light" filter="url(#filter0_f)">
<ellipse cx="12.7498" cy="11.54" rx="3.45" ry="3.924" fill="#FF0000" fill-opacity="0.2"/>
</g>
<g style="mix-blend-mode:hard-light" filter="url(#filter1_f)">
<path d="M9.875 14.81L15.625 11.54L9.875 8.27002V14.81Z" stroke="#FF5C00" stroke-width="1.3" stroke-linecap="round" stroke-linejoin="round"/>
</g>
<g style="mix-blend-mode:hard-light" filter="url(#filter2_f)">
<path d="M9.875 14.81L15.625 11.54L9.875 8.27002V14.81Z" stroke="#FF0000" stroke-width="1.7" stroke-linecap="round" stroke-linejoin="round"/>
</g>
<g style="mix-blend-mode:hard-light" filter="url(#filter3_ddi)">
<path d="M9.875 14.81L15.625 11.54L9.875 8.27002V14.81Z" stroke="#FF0000" stroke-opacity="0.2" stroke-width="1.3" stroke-linecap="round" stroke-linejoin="round"/>
</g>
<g filter="url(#filter4_f)">
<path d="M9.875 14.81L15.625 11.54L9.875 8.27002V14.81Z" stroke="#FF9983" stroke-width="0.8" stroke-linecap="round" stroke-linejoin="round"/>
</g>
<g filter="url(#filter5_f)">
<path d="M9.875 14.81L15.625 11.54L9.875 8.27002V14.81Z" stroke="white" stroke-width="0.4" stroke-linecap="round" stroke-linejoin="round"/>
</g>
<g style="mix-blend-mode:hard-light" filter="url(#filter6_f)">
<ellipse cx="12.0015" cy="12.4601" rx="13.2007" ry="9.276" fill="#FF0000" fill-opacity="0.2"/>
</g>
<g style="mix-blend-mode:hard-light" filter="url(#filter7_f)">
<path d="M22.5415 7.14998C22.4228 6.67539 22.1808 6.24055 21.8402 5.88939C21.4996 5.53822 21.0723 5.28317 20.6015 5.14998C18.8815 4.72998 12.0015 4.72998 12.0015 4.72998C12.0015 4.72998 5.12155 4.72998 3.40155 5.18998C2.9308 5.32317 2.50353 5.57822 2.16289 5.92939C1.82226 6.28055 1.58034 6.71539 1.46155 7.18998C1.14676 8.93554 0.992784 10.7063 1.00155 12.48C0.990328 14.267 1.14432 16.0513 1.46155 17.81C1.59251 18.2698 1.83985 18.6881 2.17969 19.0245C2.51953 19.3608 2.94037 19.6038 3.40155 19.73C5.12155 20.19 12.0015 20.19 12.0015 20.19C12.0015 20.19 18.8815 20.19 20.6015 19.73C21.0723 19.5968 21.4996 19.3417 21.8402 18.9906C22.1808 18.6394 22.4228 18.2046 22.5415 17.73C22.8539 15.9976 23.0079 14.2403 23.0015 12.48C23.0128 10.6929 22.8588 8.90868 22.5415 7.14998V7.14998Z" stroke="#FF5C00" stroke-width="1.3" stroke-linecap="round" stroke-linejoin="round"/>
</g>
<g style="mix-blend-mode:hard-light" filter="url(#filter8_f)">
<path d="M22.5415 7.14998C22.4228 6.67539 22.1808 6.24055 21.8402 5.88939C21.4996 5.53822 21.0723 5.28317 20.6015 5.14998C18.8815 4.72998 12.0015 4.72998 12.0015 4.72998C12.0015 4.72998 5.12155 4.72998 3.40155 5.18998C2.9308 5.32317 2.50353 5.57822 2.16289 5.92939C1.82226 6.28055 1.58034 6.71539 1.46155 7.18998C1.14676 8.93554 0.992784 10.7063 1.00155 12.48C0.990328 14.267 1.14432 16.0513 1.46155 17.81C1.59251 18.2698 1.83985 18.6881 2.17969 19.0245C2.51953 19.3608 2.94037 19.6038 3.40155 19.73C5.12155 20.19 12.0015 20.19 12.0015 20.19C12.0015 20.19 18.8815 20.19 20.6015 19.73C21.0723 19.5968 21.4996 19.3417 21.8402 18.9906C22.1808 18.6394 22.4228 18.2046 22.5415 17.73C22.8539 15.9976 23.0079 14.2403 23.0015 12.48C23.0128 10.6929 22.8588 8.90868 22.5415 7.14998V7.14998Z" stroke="#FF0000" stroke-width="1.7" stroke-linecap="round" stroke-linejoin="round"/>
</g>
<g style="mix-blend-mode:hard-light" filter="url(#filter9_ddi)">
<path d="M22.5415 7.14998C22.4228 6.67539 22.1808 6.24055 21.8402 5.88939C21.4996 5.53822 21.0723 5.28317 20.6015 5.14998C18.8815 4.72998 12.0015 4.72998 12.0015 4.72998C12.0015 4.72998 5.12155 4.72998 3.40155 5.18998C2.9308 5.32317 2.50353 5.57822 2.16289 5.92939C1.82226 6.28055 1.58034 6.71539 1.46155 7.18998C1.14676 8.93554 0.992784 10.7063 1.00155 12.48C0.990328 14.267 1.14432 16.0513 1.46155 17.81C1.59251 18.2698 1.83985 18.6881 2.17969 19.0245C2.51953 19.3608 2.94037 19.6038 3.40155 19.73C5.12155 20.19 12.0015 20.19 12.0015 20.19C12.0015 20.19 18.8815 20.19 20.6015 19.73C21.0723 19.5968 21.4996 19.3417 21.8402 18.9906C22.1808 18.6394 22.4228 18.2046 22.5415 17.73C22.8539 15.9976 23.0079 14.2403 23.0015 12.48C23.0128 10.6929 22.8588 8.90868 22.5415 7.14998V7.14998Z" stroke="#FF0000" stroke-opacity="0.2" stroke-width="1.3" stroke-linecap="round" stroke-linejoin="round"/>
</g>
<g filter="url(#filter10_f)">
<path d="M22.5415 7.14998C22.4228 6.67539 22.1808 6.24055 21.8402 5.88939C21.4996 5.53822 21.0723 5.28317 20.6015 5.14998C18.8815 4.72998 12.0015 4.72998 12.0015 4.72998C12.0015 4.72998 5.12155 4.72998 3.40155 5.18998C2.9308 5.32317 2.50353 5.57822 2.16289 5.92939C1.82226 6.28055 1.58034 6.71539 1.46155 7.18998C1.14676 8.93554 0.992784 10.7063 1.00155 12.48C0.990328 14.267 1.14432 16.0513 1.46155 17.81C1.59251 18.2698 1.83985 18.6881 2.17969 19.0245C2.51953 19.3608 2.94037 19.6038 3.40155 19.73C5.12155 20.19 12.0015 20.19 12.0015 20.19C12.0015 20.19 18.8815 20.19 20.6015 19.73C21.0723 19.5968 21.4996 19.3417 21.8402 18.9906C22.1808 18.6394 22.4228 18.2046 22.5415 17.73C22.8539 15.9976 23.0079 14.2403 23.0015 12.48C23.0128 10.6929 22.8588 8.90868 22.5415 7.14998V7.14998Z" stroke="#FF9983" stroke-width="0.8" stroke-linecap="round" stroke-linejoin="round"/>
</g>
<g filter="url(#filter11_f)">
<path d="M22.5415 7.14998C22.4228 6.67539 22.1808 6.24055 21.8402 5.88939C21.4996 5.53822 21.0723 5.28317 20.6015 5.14998C18.8815 4.72998 12.0015 4.72998 12.0015 4.72998C12.0015 4.72998 5.12155 4.72998 3.40155 5.18998C2.9308 5.32317 2.50353 5.57822 2.16289 5.92939C1.82226 6.28055 1.58034 6.71539 1.46155 7.18998C1.14676 8.93554 0.992784 10.7063 1.00155 12.48C0.990328 14.267 1.14432 16.0513 1.46155 17.81C1.59251 18.2698 1.83985 18.6881 2.17969 19.0245C2.51953 19.3608 2.94037 19.6038 3.40155 19.73C5.12155 20.19 12.0015 20.19 12.0015 20.19C12.0015 20.19 18.8815 20.19 20.6015 19.73C21.0723 19.5968 21.4996 19.3417 21.8402 18.9906C22.1808 18.6394 22.4228 18.2046 22.5415 17.73C22.8539 15.9976 23.0079 14.2403 23.0015 12.48C23.0128 10.6929 22.8588 8.90868 22.5415 7.14998V7.14998Z" stroke="white" stroke-width="0.4" stroke-linecap="round" stroke-linejoin="round"/>
</g>
</g>
<defs>
<filter id="filter0_f" x="3.2998" y="1.61597" width="18.9" height="19.848" filterUnits="userSpaceOnUse" color-interpolation-filters="sRGB">
<feFlood flood-opacity="0" result="BackgroundImageFix"/>
<feBlend mode="normal" in="SourceGraphic" in2="BackgroundImageFix" result="shape"/>
<feGaussianBlur stdDeviation="3" result="effect1_foregroundBlur"/>
</filter>
<filter id="filter1_f" x="3.22461" y="1.62012" width="19.05" height="19.84" filterUnits="userSpaceOnUse" color-interpolation-filters="sRGB">
<feFlood flood-opacity="0" result="BackgroundImageFix"/>
<feBlend mode="normal" in="SourceGraphic" in2="BackgroundImageFix" result="shape"/>
<feGaussianBlur stdDeviation="3" result="effect1_foregroundBlur"/>
</filter>
<filter id="filter2_f" x="7.02539" y="5.41992" width="11.45" height="12.24" filterUnits="userSpaceOnUse" color-interpolation-filters="sRGB">
<feFlood flood-opacity="0" result="BackgroundImageFix"/>
<feBlend mode="normal" in="SourceGraphic" in2="BackgroundImageFix" result="shape"/>
<feGaussianBlur stdDeviation="1" result="effect1_foregroundBlur"/>
</filter>
<filter id="filter3_ddi" x="6.62461" y="7.02012" width="12.25" height="13.04" filterUnits="userSpaceOnUse" color-interpolation-filters="sRGB">
<feFlood flood-opacity="0" result="BackgroundImageFix"/>
<feColorMatrix in="SourceAlpha" type="matrix" values="0 0 0 0 0 0 0 0 0 0 0 0 0 0 0 0 0 0 127 0"/>
<feOffset dy="1.3"/>
<feGaussianBlur stdDeviation="0.5"/>
<feColorMatrix type="matrix" values="0 0 0 0 0.15 0 0 0 0 0 0 0 0 0 0 0 0 0 0.7 0"/>
<feBlend mode="multiply" in2="BackgroundImageFix" result="effect1_dropShadow"/>
<feColorMatrix in="SourceAlpha" type="matrix" values="0 0 0 0 0 0 0 0 0 0 0 0 0 0 0 0 0 0 127 0"/>
<feOffset dy="2"/>
<feGaussianBlur stdDeviation="1.3"/>
<feColorMatrix type="matrix" values="0 0 0 0 0.8 0 0 0 0 0.19 0 0 0 0 0.19 0 0 0 1 0"/>
<feBlend mode="color-dodge" in2="effect1_dropShadow" result="effect2_dropShadow"/>
<feBlend mode="normal" in="SourceGraphic" in2="effect2_dropShadow" result="shape"/>
<feColorMatrix in="SourceAlpha" type="matrix" values="0 0 0 0 0 0 0 0 0 0 0 0 0 0 0 0 0 0 127 0" result="hardAlpha"/>
<feOffset dx="-0.13" dy="0.26"/>
<feGaussianBlur stdDeviation="0.065"/>
<feComposite in2="hardAlpha" operator="arithmetic" k2="-1" k3="1"/>
<feColorMatrix type="matrix" values="0 0 0 0 1 0 0 0 0 1 0 0 0 0 1 0 0 0 0.5 0"/>
<feBlend mode="normal" in2="shape" result="effect3_innerShadow"/>
</filter>
<filter id="filter4_f" x="9.27461" y="7.67012" width="6.95" height="7.74" filterUnits="userSpaceOnUse" color-interpolation-filters="sRGB">
<feFlood flood-opacity="0" result="BackgroundImageFix"/>
<feBlend mode="normal" in="SourceGraphic" in2="BackgroundImageFix" result="shape"/>
<feGaussianBlur stdDeviation="0.1" result="effect1_foregroundBlur"/>
</filter>
<filter id="filter5_f" x="9.54147" y="7.93674" width="6.41667" height="7.20667" filterUnits="userSpaceOnUse" color-interpolation-filters="sRGB">
<feFlood flood-opacity="0" result="BackgroundImageFix"/>
<feBlend mode="normal" in="SourceGraphic" in2="BackgroundImageFix" result="shape"/>
<feGaussianBlur stdDeviation="0.0666667" result="effect1_foregroundBlur"/>
</filter>
<filter id="filter6_f" x="-7.19922" y="-2.81592" width="38.4014" height="30.552" filterUnits="userSpaceOnUse" color-interpolation-filters="sRGB">
<feFlood flood-opacity="0" result="BackgroundImageFix"/>
<feBlend mode="normal" in="SourceGraphic" in2="BackgroundImageFix" result="shape"/>
<feGaussianBlur stdDeviation="3" result="effect1_foregroundBlur"/>
</filter>
<filter id="filter7_f" x="-5.64941" y="-1.91992" width="35.3011" height="28.76" filterUnits="userSpaceOnUse" color-interpolation-filters="sRGB">
<feFlood flood-opacity="0" result="BackgroundImageFix"/>
<feBlend mode="normal" in="SourceGraphic" in2="BackgroundImageFix" result="shape"/>
<feGaussianBlur stdDeviation="3" result="effect1_foregroundBlur"/>
</filter>
<filter id="filter8_f" x="-1.84863" y="1.87988" width="27.7011" height="21.16" filterUnits="userSpaceOnUse" color-interpolation-filters="sRGB">
<feFlood flood-opacity="0" result="BackgroundImageFix"/>
<feBlend mode="normal" in="SourceGraphic" in2="BackgroundImageFix" result="shape"/>
<feGaussianBlur stdDeviation="1" result="effect1_foregroundBlur"/>
</filter>
<filter id="filter9_ddi" x="-2.24941" y="3.48008" width="28.5011" height="21.96" filterUnits="userSpaceOnUse" color-interpolation-filters="sRGB">
<feFlood flood-opacity="0" result="BackgroundImageFix"/>
<feColorMatrix in="SourceAlpha" type="matrix" values="0 0 0 0 0 0 0 0 0 0 0 0 0 0 0 0 0 0 127 0"/>
<feOffset dy="1.3"/>
<feGaussianBlur stdDeviation="0.5"/>
<feColorMatrix type="matrix" values="0 0 0 0 0.15 0 0 0 0 0 0 0 0 0 0 0 0 0 0.7 0"/>
<feBlend mode="multiply" in2="BackgroundImageFix" result="effect1_dropShadow"/>
<feColorMatrix in="SourceAlpha" type="matrix" values="0 0 0 0 0 0 0 0 0 0 0 0 0 0 0 0 0 0 127 0"/>
<feOffset dy="2"/>
<feGaussianBlur stdDeviation="1.3"/>
<feColorMatrix type="matrix" values="0 0 0 0 0.8 0 0 0 0 0.19 0 0 0 0 0.19 0 0 0 1 0"/>
<feBlend mode="color-dodge" in2="effect1_dropShadow" result="effect2_dropShadow"/>
<feBlend mode="normal" in="SourceGraphic" in2="effect2_dropShadow" result="shape"/>
<feColorMatrix in="SourceAlpha" type="matrix" values="0 0 0 0 0 0 0 0 0 0 0 0 0 0 0 0 0 0 127 0" result="hardAlpha"/>
<feOffset dx="-0.13" dy="0.26"/>
<feGaussianBlur stdDeviation="0.065"/>
<feComposite in2="hardAlpha" operator="arithmetic" k2="-1" k3="1"/>
<feColorMatrix type="matrix" values="0 0 0 0 1 0 0 0 0 1 0 0 0 0 1 0 0 0 0.5 0"/>
<feBlend mode="normal" in2="shape" result="effect3_innerShadow"/>
</filter>
<filter id="filter10_f" x="0.400586" y="4.13008" width="23.2011" height="16.66" filterUnits="userSpaceOnUse" color-interpolation-filters="sRGB">
<feFlood flood-opacity="0" result="BackgroundImageFix"/>
<feBlend mode="normal" in="SourceGraphic" in2="BackgroundImageFix" result="shape"/>
<feGaussianBlur stdDeviation="0.1" result="effect1_foregroundBlur"/>
</filter>
<filter id="filter11_f" x="0.667448" y="4.3967" width="22.6678" height="16.1267" filterUnits="userSpaceOnUse" color-interpolation-filters="sRGB">
<feFlood flood-opacity="0" result="BackgroundImageFix"/>
<feBlend mode="normal" in="SourceGraphic" in2="BackgroundImageFix" result="shape"/>
<feGaussianBlur stdDeviation="0.0666667" result="effect1_foregroundBlur"/>
</filter>
<clipPath id="clip0">
<rect width="24" height="24" fill="white"/>
</clipPath>
</defs>
</svg>
